<svg width="19" height="18" viewBox="0 0 19 18" fill="none" xmlns="http://www.w3.org/2000/svg">
<g clip-path="url(#clip0_139_9750)">
<path d="M8.97705 13.832V17.6152C8.97705 17.7396 9.07816 17.8402 9.20324 17.8402C9.32832 17.8402 9.42943 17.7396 9.42943 17.6152V13.9137L9.20324 13.873L8.97705 13.832Z" fill="white"/>
<path d="M6.83344 17.6152C6.83344 17.7397 6.93454 17.8402 7.05963 17.8402C7.18471 17.8402 7.28582 17.7397 7.28582 17.6152V13.527L6.83344 13.4453V17.6152Z" fill="white"/>
<path d="M11.2369 17.6169C11.2369 17.7413 11.338 17.8419 11.4631 17.8419C11.5882 17.8419 11.6893 17.7413 11.6893 17.6169V12.6914C11.531 12.7949 11.381 12.9081 11.2369 13.0318V17.6169Z" fill="white"/>
<path d="M15.583 9.20762C12.8381 9.68439 11.8929 10.1591 10.7653 11.6259C10.7436 11.654 10.7104 11.67 10.6755 11.67C10.669 11.67 10.662 11.6693 10.6554 11.6682L2.35805 10.1715C0.744176 10.7972 0.259224 11.6981 0.135498 12.0107L6.83345 13.2191L7.28583 13.3008L8.97706 13.6059L9.20325 13.6466L9.42944 13.6874L10.1922 13.8251C10.5378 13.3811 10.8687 13.0281 11.2369 12.7363C11.3806 12.6224 11.531 12.5183 11.6893 12.422C12.4783 11.942 13.4868 11.6581 15.1082 11.3766C17.4375 10.9718 18.2244 9.69767 18.4171 9.29852L16.5671 8.96484C16.2726 9.06159 15.9458 9.14462 15.583 9.20762Z" fill="white"/>
<path d="M2.5514 9.9776L2.78845 10.0203L10.6278 11.4347C11.78 9.9542 12.7632 9.4691 15.544 8.98602C15.7272 8.9543 15.8978 8.91537 16.0624 8.87352C16.1491 8.85147 16.2352 8.82942 16.3169 8.8049C16.3947 8.78172 16.4673 8.7563 16.5406 8.7311C18.0995 8.1956 18.6887 7.24362 18.8525 6.90792L11.9155 5.65647V7.67675C11.9155 7.75302 11.8944 7.8239 11.8607 7.8869C11.841 7.9238 11.8173 7.95822 11.7886 7.98815C11.7519 8.02595 11.7085 8.05632 11.6608 8.0795C11.6008 8.10875 11.5343 8.12652 11.4631 8.12652C11.3335 8.12652 11.2172 8.07162 11.1349 7.98455C11.0989 7.94652 11.0688 7.90288 11.0478 7.85428C11.0315 7.81693 11.0222 7.7762 11.0166 7.73435C11.0141 7.71522 11.0107 7.69633 11.0107 7.6763V5.4929L9.65559 5.24855V7.48888V7.60317V7.67652C9.65559 7.69047 9.65265 7.70353 9.65152 7.71703C9.63071 7.9463 9.43913 8.12652 9.20321 8.12652C8.9535 8.12652 8.75083 7.92492 8.75083 7.67652V7.55457V7.44005V7.32575V5.23438C8.58798 5.50572 8.22358 5.98093 7.51199 6.41518V7.67652C7.51199 7.92492 7.30932 8.12652 7.05961 8.12652C6.80989 8.12652 6.60722 7.92492 6.60722 7.67652V6.85212C6.13924 7.02875 5.58326 7.17635 4.91555 7.26477C1.5582 7.70982 0.737808 9.19955 0.571106 9.62052L2.3277 9.93733L2.5514 9.9776Z" fill="white"/>
<path d="M8.00016 2.11496C8.06915 2.11496 8.13701 2.08368 8.18157 2.02473L8.75111 1.26648L8.9773 0.965206V1.34118V4.89686V5.01116V5.12546V7.36578V7.48008V7.59461V7.67583C8.9773 7.80026 9.07841 7.90083 9.20349 7.90083C9.32835 7.90083 9.42946 7.80048 9.42968 7.67628V7.67583V7.56176V7.44746V5.20713V5.09261V4.97831V1.28988V0.934831L9.65587 1.20911L10.2888 1.97658C10.3681 2.07243 10.5102 2.08683 10.607 2.00808C10.7038 1.92911 10.7176 1.78758 10.6387 1.69151L9.65474 0.498106L9.48646 0.294031C9.41408 0.206281 9.31229 0.162856 9.19286 0.160156C9.07886 0.162856 8.97459 0.216631 8.90696 0.307081L8.75134 0.514531L7.81966 1.75518C7.74479 1.85463 7.76537 1.99571 7.86535 2.06996C7.90561 2.10033 7.95311 2.11496 8.00016 2.11496Z" fill="white"/>
<path d="M4.72646 4.1328C4.76899 4.20233 4.84363 4.24058 4.91963 4.24058C4.95989 4.24058 5.00038 4.23 5.03725 4.20773C5.14401 4.14315 5.17771 4.00478 5.11257 3.89858L4.58826 3.04313L4.44463 2.80868C4.44961 2.8089 4.45391 2.8116 4.45888 2.8116C4.54732 2.8116 4.63441 2.81723 4.72036 2.82668C5.90695 2.95673 6.83343 3.9591 6.83343 5.17343V6.51038V6.63728V6.75968V7.6752C6.83343 7.79963 6.93454 7.9002 7.05962 7.9002C7.1847 7.9002 7.28581 7.79963 7.28581 7.6752V6.54413V6.41295V6.27998V5.17343C7.28581 3.8241 6.32495 2.6946 5.04833 2.42393C4.86783 2.38568 4.68123 2.3652 4.48987 2.36295L5.03454 2.19218L5.85289 1.93568C5.97187 1.89833 6.03814 1.77188 6.0006 1.6533C5.96305 1.53495 5.83615 1.46948 5.71673 1.50638L3.98366 2.04975C3.87508 2.08373 3.79004 2.16428 3.75 2.27025C3.70996 2.37623 3.72105 2.49255 3.78054 2.5893L4.72646 4.1328Z" fill="white"/>
<path d="M11.4631 7.89975C11.5214 7.89975 11.5732 7.87635 11.6135 7.84035C11.6594 7.79918 11.6893 7.74113 11.6893 7.67475V5.61375V5.49945V5.38515V5.17298C11.6893 3.95865 12.6155 2.95628 13.8023 2.82623C13.8883 2.81678 13.9754 2.81115 14.0638 2.81115C14.0688 2.81115 14.0733 2.80868 14.0783 2.80823L13.9347 3.04268L13.4106 3.89813C13.3454 4.00433 13.3791 4.1427 13.4859 4.20728C13.5226 4.22978 13.5633 4.24013 13.6035 4.24013C13.6798 4.24013 13.7542 4.20165 13.7967 4.13235L14.7424 2.5893C14.8019 2.49255 14.813 2.37645 14.7729 2.27025C14.7329 2.16405 14.6478 2.08373 14.5391 2.04953L12.8062 1.50638C12.6863 1.46948 12.5601 1.53495 12.5223 1.6533C12.4848 1.77188 12.5511 1.89833 12.67 1.93568L13.4884 2.19218L14.0331 2.36295C13.8417 2.36498 13.6551 2.38568 13.4746 2.42393C12.198 2.69438 11.2371 3.8241 11.2371 5.17343V5.30393V5.41823V5.53253V7.6752C11.2371 7.71278 11.2487 7.74675 11.2652 7.77803C11.3027 7.84935 11.376 7.89975 11.4631 7.89975Z" fill="white"/>
</g>
<defs>
<clipPath id="clip0_139_9750">
<rect width="19" height="18" fill="white"/>
</clipPath>
</defs>
</svg>
