<svg width="78" height="73" viewBox="0 0 78 73" fill="none" xmlns="http://www.w3.org/2000/svg">
<g style="mix-blend-mode:plus-lighter" filter="url(#filter0_df_93_4996)">
<path d="M62.2471 11.1588L66.1359 13.6588C66.9755 14.1985 66.5932 15.5 65.5952 15.5H22C22 15.5 20 15.5 18 17.5C16 19.5 16 21.5 16 21.5V60.5952C16 61.5932 14.6985 61.9755 14.1588 61.1359L11.6588 57.2471C11.5551 57.0858 11.5 56.898 11.5 56.7063V16.4684C11.5 16.1716 11.6318 15.8901 11.8598 15.7002L17.2219 11.2318C17.4016 11.082 17.6281 11 17.862 11H61.7063C61.898 11 62.0858 11.0551 62.2471 11.1588Z" stroke="#00B0FF" stroke-width="2" stroke-linecap="round" shape-rendering="crispEdges"/>
</g>
<g filter="url(#filter1_df_93_4996)">
<path d="M62.2471 11.1588L66.1359 13.6588C66.9755 14.1985 66.5932 15.5 65.5952 15.5H22C22 15.5 20 15.5 18 17.5C16 19.5 16 21.5 16 21.5V60.5952C16 61.5932 14.6985 61.9755 14.1588 61.1359L11.6588 57.2471C11.5551 57.0858 11.5 56.898 11.5 56.7063V16.4684C11.5 16.1716 11.6318 15.8901 11.8598 15.7002L17.2219 11.2318C17.4016 11.082 17.6281 11 17.862 11H61.7063C61.898 11 62.0858 11.0551 62.2471 11.1588Z" stroke="white" stroke-width="2" stroke-linecap="round" shape-rendering="crispEdges"/>
</g>
<defs>
<filter id="filter0_df_93_4996" x="0.5" y="0" width="77.0986" height="72.5977" filterUnits="userSpaceOnUse" color-interpolation-filters="sRGB">
<feFlood flood-opacity="0" result="BackgroundImageFix"/>
<feColorMatrix in="SourceAlpha" type="matrix" values="0 0 0 0 0 0 0 0 0 0 0 0 0 0 0 0 0 0 127 0" result="hardAlpha"/>
<feOffset/>
<feGaussianBlur stdDeviation="5"/>
<feComposite in2="hardAlpha" operator="out"/>
<feColorMatrix type="matrix" values="0 0 0 0 0 0 0 0 0 0.690196 0 0 0 0 1 0 0 0 1 0"/>
<feBlend mode="normal" in2="BackgroundImageFix" result="effect1_dropShadow_93_4996"/>
<feBlend mode="normal" in="SourceGraphic" in2="effect1_dropShadow_93_4996" result="shape"/>
<feGaussianBlur stdDeviation="1.25" result="effect2_foregroundBlur_93_4996"/>
</filter>
<filter id="filter1_df_93_4996" x="5.2" y="4.7" width="67.6986" height="63.1977" filterUnits="userSpaceOnUse" color-interpolation-filters="sRGB">
<feFlood flood-opacity="0" result="BackgroundImageFix"/>
<feColorMatrix in="SourceAlpha" type="matrix" values="0 0 0 0 0 0 0 0 0 0 0 0 0 0 0 0 0 0 127 0" result="hardAlpha"/>
<feOffset/>
<feGaussianBlur stdDeviation="2.65"/>
<feComposite in2="hardAlpha" operator="out"/>
<feColorMatrix type="matrix" values="0 0 0 0 1 0 0 0 0 1 0 0 0 0 1 0 0 0 1 0"/>
<feBlend mode="normal" in2="BackgroundImageFix" result="effect1_dropShadow_93_4996"/>
<feBlend mode="normal" in="SourceGraphic" in2="effect1_dropShadow_93_4996" result="shape"/>
<feGaussianBlur stdDeviation="0.75" result="effect2_foregroundBlur_93_4996"/>
</filter>
</defs>
</svg>
