<svg width="34" height="22" viewBox="0 0 34 22" fill="none" xmlns="http://www.w3.org/2000/svg">
<path d="M14.7427 16.4153L14.8393 16.7907H15.2269H32.8665C33.2039 16.7907 33.5 17.0755 33.5 17.4545C33.5 17.8334 33.2039 18.1182 32.8665 18.1182H15.2266H14.8389L14.7423 18.4937C14.2951 20.2327 12.7576 21.5 10.9463 21.5C9.13348 21.5 7.59521 20.2307 7.14899 18.4895L7.05266 18.1137H6.66464H1.13346C0.798338 18.1137 0.504462 17.8311 0.504462 17.4545C0.504462 17.0778 0.798338 16.7952 1.13346 16.7952H6.66464H7.05273L7.14901 16.4193C7.59486 14.6782 9.13341 13.4089 10.9463 13.4089C12.7576 13.4089 14.2952 14.6762 14.7427 16.4153ZM27.3498 3.50629L27.4463 3.88177H27.834H32.8662C33.2035 3.88177 33.4996 4.16656 33.4996 4.54555C33.4996 4.92454 33.2035 5.20933 32.8662 5.20933H27.834H27.4463L27.3498 5.58481C26.9026 7.32384 25.3651 8.5911 23.5538 8.5911C21.7426 8.5911 20.205 7.32384 19.7579 5.58481L19.6613 5.20933H19.2736H1.13346C0.796107 5.20933 0.5 4.92453 0.5 4.54555C0.5 4.16656 0.796107 3.88177 1.13346 3.88177H19.2732H19.6609L19.7575 3.50629C20.2047 1.76726 21.7422 0.5 23.5535 0.5C25.3651 0.5 26.9026 1.76729 27.3498 3.50629Z" stroke="#ffffff"/>
</svg>
