<svg width="13" height="15" viewBox="0 0 13 15" fill="none" xmlns="http://www.w3.org/2000/svg">
<path d="M6.93333 0.150002C6.67651 -0.0500006 6.32349 -0.0500006 6.06667 0.150002L5.10373 0.900002C3.97858 1.7763 2.61011 2.25 1.20371 2.25H0.722222C0.323353 2.25 0 2.58579 0 3V7.54178C0 10.0985 1.39101 12.4358 3.59311 13.5792L6.17702 14.9208C6.38033 15.0264 6.61967 15.0264 6.82298 14.9208L9.40687 13.5792C11.609 12.4358 13 10.0985 13 7.54178V3C13 2.58579 12.6767 2.25 12.2778 2.25H11.7963C10.3899 2.25 9.02142 1.7763 7.89627 0.900002L6.93333 0.150002Z" fill="white"/>
</svg>
