<svg width="19" height="16" viewBox="0 0 19 16" fill="none" xmlns="http://www.w3.org/2000/svg">
<path fill-rule="evenodd" clip-rule="evenodd" d="M0.910691 1.44259H13.684C13.6919 1.43466 14.1422 1.42938 14.6867 1.42938H15.6763L15.7287 1.24971C15.7575 1.15195 15.8282 0.908881 15.8858 0.708082C16.0088 0.272136 16.0717 0.163811 16.2628 0.0713372L16.4042 0L18.5771 0.0158534L18.7054 0.095116C18.8075 0.158526 18.852 0.208726 18.9201 0.346115C19.0012 0.501999 19.0065 0.533704 18.996 0.694872C18.9777 0.974934 18.7918 1.23122 18.5588 1.29727C18.5064 1.31312 18.0535 1.32369 17.5194 1.32369C16.9984 1.32369 16.5665 1.33162 16.5612 1.34483C16.5534 1.3554 16.433 1.76228 16.2942 2.24843C16.1554 2.73457 15.9277 3.51399 15.7915 3.979C15.6554 4.44401 15.5219 4.89581 15.4957 4.983C15.4774 5.05085 15.4241 5.23074 15.3669 5.42425L15.3177 5.59068C14.9302 6.91701 14.4014 8.7427 14.2103 9.42172C14.0636 9.93693 13.9642 10.0928 13.7024 10.217L13.5715 10.2804H10.4089L10.2099 10.3887C10.0136 10.4971 9.2203 10.97 8.85116 11.1999C8.74905 11.2633 8.66266 11.3267 8.66266 11.3399C8.66266 11.3531 9.27266 11.3637 10.1052 11.3637H11.5451L11.3278 11.583C11.2074 11.7018 11.0529 11.8868 10.9822 11.9925L10.8513 12.1827H7.35888L7.20704 11.9793C7.12326 11.8657 6.96094 11.6807 6.84575 11.5697L6.63893 11.3637L6.94785 11.3742L8.42704 10.4944C9.24124 10.0109 9.96382 9.58289 10.0371 9.5459L10.168 9.4772L13.3358 9.48777L13.4091 9.28169C13.4484 9.17072 13.4798 9.06504 13.4798 9.05183C13.4798 9.03333 11.6917 9.0254 8.17309 9.0254H2.86374L2.73545 8.96464C2.54957 8.88009 2.44224 8.79026 2.36893 8.6608C2.3349 8.60003 2.18305 8.20371 2.03121 7.78362C1.54425 6.42558 0.630562 3.89709 0.319017 3.04105C0.151464 2.58397 0.0100928 2.15331 0.00223785 2.08726C-0.0134702 1.91816 0.0545969 1.72265 0.172408 1.60375C0.295456 1.47958 0.483953 1.42145 0.730047 1.43466L0.910691 1.44259ZM0.988037 2.42767L3.08569 8.18548L13.5742 8.22968L15.265 2.41797L0.988037 2.42767Z" fill="white"/>
<path fill-rule="evenodd" clip-rule="evenodd" d="M13.7155 11.3017C14.0716 11.3783 14.3622 11.5078 14.6449 11.7218C15.0795 12.0468 15.3544 12.4431 15.5141 12.9689C15.5769 13.1802 15.5848 13.241 15.5848 13.6241C15.5848 14.0072 15.5769 14.068 15.5141 14.2793C15.2549 15.1301 14.6187 15.7457 13.7757 15.9544C13.5322 16.0152 12.9825 16.0152 12.7364 15.9544C11.8829 15.7404 11.2284 15.1116 10.9928 14.2714C10.9195 14.0151 10.8933 13.4946 10.9404 13.2304C11.032 12.7073 11.2624 12.2793 11.6656 11.8909C12.0007 11.5659 12.4117 11.3598 12.8516 11.2885C13.0846 11.2488 13.5113 11.2568 13.7155 11.3017ZM12.7442 12.0943C12.2494 12.2528 11.8489 12.6861 11.7075 13.2172C11.6525 13.4339 11.6525 13.809 11.7101 14.031C11.8515 14.5858 12.341 15.0693 12.8699 15.1829C13.0819 15.2278 13.3987 15.2331 13.5898 15.1935C14.137 15.0799 14.6711 14.5568 14.802 14.0046C14.8517 13.7826 14.8517 13.4101 14.7994 13.204C14.6737 12.7126 14.2522 12.2502 13.781 12.0917C13.4642 11.986 13.0819 11.986 12.7442 12.0943Z" fill="white"/>
<path fill-rule="evenodd" clip-rule="evenodd" d="M5.40325 11.2969C5.85355 11.3999 6.23055 11.6034 6.54995 11.9152C7.14686 12.4911 7.38248 13.2547 7.2254 14.079C7.04737 15.0011 6.34836 15.7409 5.45561 15.9496C5.1493 16.021 4.66497 16.0157 4.36913 15.9391C3.32192 15.6617 2.58888 14.7184 2.58888 13.6537C2.58888 12.9482 2.82973 12.3802 3.32454 11.9046C3.6387 11.606 3.89265 11.4554 4.29583 11.3365C4.54192 11.2626 5.16501 11.2414 5.40325 11.2969ZM4.49218 12.0684C4.00523 12.2111 3.59158 12.61 3.42664 13.0909C3.21458 13.7118 3.37952 14.3432 3.87694 14.8109C4.16231 15.0804 4.52098 15.2204 4.93201 15.2204C5.38231 15.2204 5.72265 15.0725 6.06038 14.7316C6.38501 14.404 6.52115 14.0658 6.51853 13.5982C6.51591 13.1569 6.3693 12.8029 6.05776 12.4832C5.79595 12.2164 5.53677 12.079 5.18334 12.0235C4.99746 11.9944 4.66759 12.0156 4.49218 12.0684Z" fill="white"/>
<path d="M10.6262 12.6736C10.6262 12.6894 10.6026 12.7925 10.5765 12.9034C10.5477 13.0144 10.5162 13.1756 10.5058 13.2628L10.4874 13.4239H7.69402V13.3367C7.69402 13.268 7.63118 12.9457 7.57359 12.6974C7.5605 12.6445 7.57359 12.6445 9.09204 12.6445C10.1811 12.6445 10.6262 12.6524 10.6262 12.6736Z" fill="white"/>
</svg>
