<svg width="40" height="45" viewBox="0 0 40 45" fill="none" xmlns="http://www.w3.org/2000/svg">
<g filter="url(#filter0_d_72_17447)">
<path d="M29.7576 16.352C29.4902 14.795 28.6526 13.403 27.4588 12.5322L26.0199 11.4863C25.9733 11.0608 25.7769 10.665 25.4496 10.4019L23.8243 9.09305C23.8166 9.08684 23.8066 9.08933 23.7988 9.08436C23.73 9.03474 23.6524 9 23.5647 9H16.5064C16.4188 9 16.3411 9.03598 16.2723 9.08436C16.2646 9.08933 16.2546 9.08684 16.2468 9.09305L14.6215 10.4019C14.2942 10.665 14.099 11.062 14.0512 11.4875L12.6123 12.5334C11.4186 13.4044 10.581 14.7951 10.3147 16.3533C9.50148 21.1161 8.3155 29.8602 9.50038 34.9009C9.55141 35.118 9.72781 35.2707 9.92972 35.2707H12.2029C12.4104 35.2707 12.5901 35.1094 12.6356 34.8836L13.045 32.8414C13.2291 33.1045 13.4644 33.3191 13.7384 33.4605V34.2235C13.7384 35.092 14.3708 35.7991 15.1473 35.7991H24.9225C25.7002 35.7991 26.3315 35.0919 26.3315 34.2235V33.4605C26.6044 33.3191 26.8385 33.1057 27.0226 32.8439L27.4287 34.8823C27.4742 35.1094 27.6539 35.2707 27.8625 35.2707H30.1401C30.342 35.2707 30.5184 35.1181 30.5695 34.9009C31.7543 29.8653 30.5684 21.1183 29.7562 16.3533L29.7576 16.352ZM24.9316 11.2084C25.1036 11.3461 25.1846 11.5793 25.138 11.8027C24.9649 12.6376 24.3503 13.9267 22.268 14.5557C23.0701 13.8683 23.6271 13.083 23.9344 12.2084C24.1407 11.619 24.2017 11.0719 24.1951 10.6154L24.9318 11.2096L24.9316 11.2084ZM20.0369 14.8596C18.3292 14.8596 17.18 12.8187 16.8628 11.4961C16.7086 10.8547 16.7685 10.3088 16.8339 9.99121H23.2399C23.3053 10.3101 23.3652 10.856 23.211 11.4961C22.8937 12.8187 21.7446 14.8596 20.0369 14.8596ZM15.1411 11.2071L15.8778 10.6141C15.8722 11.0719 15.9321 11.619 16.1385 12.2071C16.4458 13.0817 17.0027 13.8671 17.8048 14.5544C15.7236 13.9254 15.1089 12.6363 14.9349 11.8014C14.8883 11.578 14.9691 11.3448 15.1411 11.2071ZM24.9239 34.8044H15.1488C14.8614 34.8044 14.6273 34.5426 14.6273 34.2213V33.6581H25.4465V34.2213C25.4465 34.5426 25.2125 34.8044 24.9251 34.8044H24.9239ZM29.7933 34.2759H28.2191L27.4336 30.3344V17.9763C27.4336 17.3362 26.5461 17.3362 26.5461 17.9763V31.5441C26.5461 32.1632 26.0967 32.6669 25.542 32.6669H14.5288C13.9752 32.6669 13.5248 32.1632 13.5248 31.5441V17.9763C13.5248 17.3362 12.6372 17.3362 12.6372 17.9763V30.3356L11.8473 34.2759H10.2786C9.24131 29.1694 10.5593 20.2154 11.1872 16.5381C11.4091 15.2441 12.1047 14.0866 13.0966 13.3633L14.2138 12.5519C14.5555 13.5518 15.3953 14.7938 17.4032 15.4538V19.5951C17.4032 20.2351 18.2908 20.2351 18.2908 19.5951V15.6894C18.8604 15.8075 19.4555 15.9028 20.0359 15.9028C20.6125 15.9028 21.2039 15.8086 21.7699 15.6919V19.595C21.7699 20.2351 22.6575 20.2351 22.6575 19.595V15.4575C24.6744 14.7975 25.5152 13.5531 25.8572 12.5519L26.9733 13.3633C27.9662 14.0866 28.6629 15.2442 28.8848 16.5382C29.5127 20.218 30.8286 29.1755 29.7923 34.2772L29.7933 34.2759Z" fill="white"/>
</g>
<defs>
<filter id="filter0_d_72_17447" x="0.151538" y="0.151538" width="39.7667" height="44.4977" filterUnits="userSpaceOnUse" color-interpolation-filters="sRGB">
<feFlood flood-opacity="0" result="BackgroundImageFix"/>
<feColorMatrix in="SourceAlpha" type="matrix" values="0 0 0 0 0 0 0 0 0 0 0 0 0 0 0 0 0 0 127 0" result="hardAlpha"/>
<feOffset/>
<feGaussianBlur stdDeviation="4.42423"/>
<feComposite in2="hardAlpha" operator="out"/>
<feColorMatrix type="matrix" values="0 0 0 0 0.784314 0 0 0 0 0.917647 0 0 0 0 0.980392 0 0 0 0.5 0"/>
<feBlend mode="plus-lighter" in2="BackgroundImageFix" result="effect1_dropShadow_72_17447"/>
<feBlend mode="normal" in="SourceGraphic" in2="effect1_dropShadow_72_17447" result="shape"/>
</filter>
</defs>
</svg>
