<svg width="14" height="13" viewBox="0 0 14 13" fill="none" xmlns="http://www.w3.org/2000/svg">
<path fill-rule="evenodd" clip-rule="evenodd" d="M7.30208 12.2126C6.16029 11.5089 3.57496 9.97525 2.08295 7.6808C0.738903 5.61387 0.6745 3.78303 1.2937 2.52015C1.78465 1.51869 2.71345 0.855833 3.81114 0.73743C4.99868 0.610053 6.35113 1.12692 7.45509 2.50943C8.55903 1.12754 9.91149 0.610185 11.0991 0.73743C12.1973 0.855748 13.1262 1.51866 13.6165 2.52015C14.2351 3.78315 14.1713 5.61402 12.8272 7.68022C11.3341 9.97641 8.74433 11.5128 7.60421 12.2148C7.50816 12.2742 7.39121 12.2691 7.30196 12.2125L7.30208 12.2126Z" fill="white"/>
</svg>
