<svg width="15" height="11" viewBox="0 0 15 11" fill="none" xmlns="http://www.w3.org/2000/svg">
<path d="M12.7504 0.0160446C12.6876 0.0307503 12.6009 0.0601616 12.556 0.0836906C12.5112 0.10722 10.9385 1.63366 9.0639 3.47479L5.6495 6.82472L4.14562 5.35123C2.46234 3.70126 2.50121 3.73361 2.11552 3.73361C1.71787 3.73361 1.68498 3.7542 0.880715 4.53948C0.489046 4.92182 0.133255 5.28946 0.0943874 5.35417C0.00469233 5.50416 -0.025206 5.71886 0.0226314 5.89533C0.0614992 6.04239 0.169133 6.15121 2.93772 8.82174C5.39537 11.1893 5.16216 10.9982 5.59868 10.9952C5.89467 10.9952 6.0322 10.9452 6.24149 10.7688C6.4149 10.6246 7.21319 9.85113 10.6515 6.49826C12.4604 4.73653 14.1586 3.08069 14.4247 2.82187C14.7266 2.52776 14.927 2.31011 14.9539 2.24247C15.0197 2.08953 15.0137 1.83071 14.9449 1.69542C14.8791 1.57483 14.8373 1.53072 13.9971 0.718971C13.6025 0.336626 13.3573 0.121924 13.2676 0.0807495C13.1032 0.00428009 12.9028 -0.019249 12.7504 0.0160446Z" fill="#0D2940"/>
</svg>
