<svg width="45" height="45" viewBox="0 0 45 45" fill="none" xmlns="http://www.w3.org/2000/svg">
<g filter="url(#filter0_d_3_10389)">
<path d="M33.3721 17.1213H31.4317C31.1616 14.8838 30.0816 12.8226 28.3956 11.3265C26.7096 9.83038 24.5341 9.00283 22.2797 9H21.9672C19.7128 9.00283 17.5373 9.83038 15.8513 11.3265C14.1653 12.8226 13.0853 14.8838 12.8152 17.1213H10.8748C10.3776 17.1213 9.9007 17.3187 9.54911 17.6702C9.19752 18.0217 9 18.4984 9 18.9954V21.3381C9 21.8351 9.19752 22.3118 9.54911 22.6633C9.9007 23.0148 10.3776 23.2122 10.8748 23.2122V32.2706C10.8748 33.2647 11.2698 34.2181 11.973 34.921C12.6762 35.6239 13.6299 36.0189 14.6243 36.0189H29.6226C30.617 36.0189 31.5707 35.6239 32.2739 34.921C32.9771 34.2181 33.3721 33.2647 33.3721 32.2706V23.2122C33.8693 23.2122 34.3462 23.0148 34.6978 22.6633C35.0494 22.3118 35.2469 21.8351 35.2469 21.3381V18.9954C35.2469 18.4984 35.0494 18.0217 34.6978 17.6702C34.3462 17.3187 33.8693 17.1213 33.3721 17.1213ZM21.9672 11.4989H22.2797C23.8702 11.5018 25.4082 12.0683 26.6204 13.0977C27.8326 14.1271 28.6406 15.5527 28.9008 17.1213H15.3461C15.6063 15.5527 16.4142 14.1271 17.6265 13.0977C18.8387 12.0683 20.3767 11.5018 21.9672 11.4989ZM11.4997 19.6201H32.7472V20.7134H11.4997V19.6201ZM30.8724 32.2706C30.8724 32.6019 30.7407 32.9197 30.5063 33.1541C30.2719 33.3884 29.954 33.52 29.6226 33.52H14.6243C14.2929 33.52 13.9749 33.3884 13.7406 33.1541C13.5062 32.9197 13.3745 32.6019 13.3745 32.2706V23.2122H30.8724V32.2706Z" fill="white"/>
</g>
<defs>
<filter id="filter0_d_3_10389" x="0.151538" y="0.151538" width="43.944" height="44.7165" filterUnits="userSpaceOnUse" color-interpolation-filters="sRGB">
<feFlood flood-opacity="0" result="BackgroundImageFix"/>
<feColorMatrix in="SourceAlpha" type="matrix" values="0 0 0 0 0 0 0 0 0 0 0 0 0 0 0 0 0 0 127 0" result="hardAlpha"/>
<feOffset/>
<feGaussianBlur stdDeviation="4.42423"/>
<feComposite in2="hardAlpha" operator="out"/>
<feColorMatrix type="matrix" values="0 0 0 0 0.784314 0 0 0 0 0.917647 0 0 0 0 0.980392 0 0 0 0.5 0"/>
<feBlend mode="plus-lighter" in2="BackgroundImageFix" result="effect1_dropShadow_3_10389"/>
<feBlend mode="normal" in="SourceGraphic" in2="effect1_dropShadow_3_10389" result="shape"/>
</filter>
</defs>
</svg>
