<svg width="19" height="24" viewBox="0 0 19 24" fill="none" xmlns="http://www.w3.org/2000/svg">
<path fill-rule="evenodd" clip-rule="evenodd" d="M18.7234 3.65486C18.7234 3.19419 18.3426 2.82031 17.8734 2.82031H0.873438C0.404237 2.82031 0.0234375 3.19419 0.0234375 3.65486V6.43668C0.0234375 6.89735 0.404237 7.27122 0.873438 7.27122H17.8734C18.3426 7.27122 18.7234 6.89735 18.7234 6.43668V3.65486Z" fill="white"/>
<path fill-rule="evenodd" clip-rule="evenodd" d="M15.8888 1.98634C15.8888 0.911441 15.0014 0.0390625 13.9055 0.0390625H4.8388C3.74287 0.0390625 2.85547 0.911441 2.85547 1.98634C2.85547 2.76079 2.85547 3.65543 2.85547 3.65543C2.85547 4.1161 3.23627 4.48997 3.70547 4.48997H15.0388C15.508 4.48997 15.8888 4.1161 15.8888 3.65543V1.98634ZM14.1888 1.98634V2.82088H4.55547V1.98634C4.55547 1.83278 4.6824 1.70815 4.8388 1.70815H13.9055C14.0619 1.70815 14.1888 1.83278 14.1888 1.98634Z" fill="white"/>
<path fill-rule="evenodd" clip-rule="evenodd" d="M0.726562 8.37891L1.7341 22.1545C1.8089 23.1737 2.6725 23.9627 3.7129 23.9627C6.22096 23.9627 12.52 23.9627 15.0281 23.9627C16.0685 23.9627 16.9321 23.1737 17.0069 22.1545L18.0144 8.37891C17.9668 8.38224 17.9192 8.38447 17.8705 8.38447H0.870496C0.821762 8.38447 0.774162 8.38224 0.726562 8.37891ZM5.1205 10.6099V18.9554H6.8205V10.6099H5.1205ZM11.9205 10.6099V18.9554H13.6205V10.6099H11.9205ZM8.5205 10.6099V18.9554H10.2205V10.6099H8.5205Z" fill="white"/>
</svg>
