<svg width="47" height="38" viewBox="0 0 47 38" fill="none" xmlns="http://www.w3.org/2000/svg">
<g filter="url(#filter0_d_72_17451)">
<path d="M37.3755 24.7711C37.3755 24.7813 37.3715 24.7903 37.3688 24.8005C37.3688 24.8107 37.3728 24.8197 37.3688 24.8299C37.3647 24.8427 37.358 24.8555 37.3553 24.8696C37.3485 24.8862 37.3445 24.9029 37.3377 24.9182C37.3269 24.9412 37.3134 24.9579 37.2958 24.9771C37.285 24.9899 37.2755 25.0027 37.2647 25.0129C37.2444 25.0295 37.2228 25.0423 37.1985 25.0551C37.185 25.0615 37.1741 25.0718 37.1606 25.0743C37.116 25.0884 37.0741 25.0986 37.0295 25.0986C37.0092 25.0986 36.9876 25.0986 36.9673 25.0922C35.5724 24.853 34.2126 24.4857 32.8745 24.0469C32.8636 24.0571 32.8609 24.0699 32.8474 24.0763C31.7228 24.9349 30.0278 26.231 28.249 27.2174C26.8838 27.9774 25.4199 28.3741 24.0222 28.3741C23.5964 28.3741 23.1747 28.3382 22.7625 28.2627C21.7351 28.0759 20.6727 27.6268 19.4238 26.8515C18.6493 26.3704 17.8977 25.8266 17.1705 25.302C16.7556 25.0001 16.3257 24.6891 15.8972 24.3949C15.2984 25.0398 14.6199 25.7345 13.8008 26.2194C12.7491 26.8387 11.611 26.9897 10.6757 26.6327C9.54028 26.2002 8.82116 24.9847 9.03878 23.8652C9.19152 23.0885 9.7687 22.4373 10.5446 22.1059C10.5581 22.0956 10.5648 22.0829 10.5797 22.0765C12.0774 21.1693 13.8711 20.2878 15.9228 19.4522V18.879C15.9228 14.1591 19.8361 10.2325 24.9401 9.50432C25.2642 9.37623 28.8975 9.53988 29.06 9.62204C33.818 10.5945 37.3755 14.3715 37.3755 18.8752L37.3755 24.7711ZM29.1154 10.3027C30.7415 11.8201 31.8391 15.0495 31.8391 18.8752V22.9951C33.4205 23.5645 35.0358 24.0533 36.6835 24.3642V18.8751C36.6835 14.7474 33.4584 11.2765 29.1154 10.3027ZM31.147 22.7468V18.8752C31.147 14.2499 29.3749 10.3168 27.2299 10.0482C27.1191 10.0418 27.0082 10.0418 26.8974 10.0379C24.6901 10.1531 22.8422 14.1516 22.8422 18.8751V19.4842C22.9328 19.5174 23.0261 19.5469 23.1153 19.5789C24.6548 20.1188 26.1917 20.7509 27.6798 21.3637C28.8179 21.8333 29.9736 22.308 31.147 22.7468ZM16.6136 19.1733C16.665 19.1541 16.7137 19.1336 16.7664 19.1106C17.6869 18.7242 18.8155 18.6026 20.0267 18.76C20.7674 18.8547 21.4865 19.0453 22.1542 19.2552V18.8752C22.1542 14.9112 23.3342 11.5872 25.0576 10.1467C20.2741 10.821 16.6137 14.4765 16.6137 18.8752L16.6136 19.1733ZM15.3295 24.0112C14.7929 23.6606 14.3117 23.3791 13.8346 23.136C13.0074 22.7202 12.3261 22.5206 11.7205 22.5206C11.6138 22.5206 11.5097 22.527 11.4096 22.5398C10.6933 22.628 9.87952 23.1526 9.72139 23.9804C9.54432 24.8876 10.2134 25.7461 10.9365 26.0212C11.6638 26.3001 12.5735 26.1684 13.4345 25.6604C14.1536 25.2369 14.7767 24.6074 15.3295 24.0112ZM32.1163 23.7988C31.4594 23.5697 30.1644 23.0746 30.1644 23.0746L29.4237 22.7867C29.4237 22.7867 28.0666 22.2391 27.3989 21.964C25.9215 21.3575 24.3954 20.7293 22.8693 20.1919C21.9934 19.8836 20.9702 19.5432 19.924 19.4089C18.8413 19.2681 17.841 19.3756 17.0313 19.7134C16.4055 19.9552 15.2214 20.4542 15.2214 20.4542L14.6294 20.7127C14.6294 20.7127 12.9506 21.4983 12.2031 21.9013C12.9614 22.0024 13.6494 22.3044 14.1509 22.5564C14.7456 22.8584 15.3417 23.2153 16.0338 23.6798C16.0378 23.6798 16.0378 23.6836 16.0405 23.6836C16.5636 24.0368 17.0827 24.4104 17.5869 24.7737C18.3033 25.2906 19.044 25.8281 19.7982 26.2963C20.9715 27.0231 21.9542 27.4427 22.8923 27.6129C24.4805 27.9008 26.2553 27.5604 27.8962 26.6494C29.4899 25.7768 31.0188 24.6368 32.1163 23.7988Z" fill="white"/>
</g>
<defs>
<filter id="filter0_d_72_17451" x="0.151538" y="0.608569" width="46.0724" height="36.6149" filterUnits="userSpaceOnUse" color-interpolation-filters="sRGB">
<feFlood flood-opacity="0" result="BackgroundImageFix"/>
<feColorMatrix in="SourceAlpha" type="matrix" values="0 0 0 0 0 0 0 0 0 0 0 0 0 0 0 0 0 0 127 0" result="hardAlpha"/>
<feOffset/>
<feGaussianBlur stdDeviation="4.42423"/>
<feComposite in2="hardAlpha" operator="out"/>
<feColorMatrix type="matrix" values="0 0 0 0 0.784314 0 0 0 0 0.917647 0 0 0 0 0.980392 0 0 0 0.5 0"/>
<feBlend mode="plus-lighter" in2="BackgroundImageFix" result="effect1_dropShadow_72_17451"/>
<feBlend mode="normal" in="SourceGraphic" in2="effect1_dropShadow_72_17451" result="shape"/>
</filter>
</defs>
</svg>
