<svg width="46" height="43" viewBox="0 0 46 43" fill="none" xmlns="http://www.w3.org/2000/svg">
<g filter="url(#filter0_d_2021_4705)">
<path fill-rule="evenodd" clip-rule="evenodd" d="M19.5694 10.0632C19.7625 11.9627 21.1383 13.081 23.0053 13.081C24.64 13.0618 26.1989 12.3476 26.4335 10.0652L28.781 10.816C30.1667 11.2583 30.7735 11.8774 31.8521 12.8775L35.9475 16.6687L33.013 20.2726L31.1004 18.5058V17.8742C31.1323 17.2494 30.1812 17.2494 30.2127 17.8742L30.2127 33.1114L15.7888 33.1077L15.7888 17.8739C15.8005 17.289 14.8878 17.2896 14.9005 17.8739V18.5055L12.9902 20.2689L10.0554 16.6673L14.1487 12.8775C15.2294 11.8774 15.8358 11.2566 17.2218 10.8143L19.5694 10.0632ZM20.4517 10.0073C21.2977 10.1881 22.1247 10.2723 23.0039 10.2673C23.8809 10.274 24.7045 10.1902 25.5488 10.011C25.3532 11.9094 24.1403 12.1725 23.0006 12.1883C21.8609 12.1725 20.6477 11.9091 20.4517 10.0073ZM26.0314 9.00009C25.9495 8.9984 25.869 9.02131 25.7975 9.06341C24.8676 9.3019 23.992 9.38274 22.9882 9.38106C21.9851 9.38106 21.0937 9.29651 20.1372 9.0459C20.0832 9.02468 20.0271 9.0139 19.9711 9.01592C19.905 9.0176 19.8382 9.03343 19.7791 9.06341L16.9544 9.96515C15.4039 10.4596 14.6155 11.2317 13.5476 12.221L9.14453 16.2968C8.97136 16.4568 8.95021 16.7249 9.10056 16.9075L12.5986 21.2002C12.7593 21.4007 13.0563 21.4229 13.2453 21.2477L14.9005 19.7175L14.9005 33.5527C14.8988 33.8002 15.0995 34.0017 15.3461 34H30.6564C30.901 34 31.1004 33.8002 31.1004 33.5543L31.1004 19.7164L32.7573 21.2481C32.9462 21.4232 33.2415 21.4007 33.4043 21.2006L36.9016 16.9078C37.0483 16.7249 37.0292 16.4588 36.8563 16.2988L32.4552 12.223C31.3853 11.2354 30.5987 10.4596 29.0482 9.96515L26.2798 9.08261C26.2063 9.0304 26.1204 9.00211 26.0314 9.00009Z" fill="white"/>
</g>
<defs>
<filter id="filter0_d_2021_4705" x="0.151538" y="0.151538" width="45.6969" height="42.6969" filterUnits="userSpaceOnUse" color-interpolation-filters="sRGB">
<feFlood flood-opacity="0" result="BackgroundImageFix"/>
<feColorMatrix in="SourceAlpha" type="matrix" values="0 0 0 0 0 0 0 0 0 0 0 0 0 0 0 0 0 0 127 0" result="hardAlpha"/>
<feOffset/>
<feGaussianBlur stdDeviation="4.42423"/>
<feComposite in2="hardAlpha" operator="out"/>
<feColorMatrix type="matrix" values="0 0 0 0 0.784314 0 0 0 0 0.917647 0 0 0 0 0.980392 0 0 0 0.5 0"/>
<feBlend mode="plus-lighter" in2="BackgroundImageFix" result="effect1_dropShadow_2021_4705"/>
<feBlend mode="normal" in="SourceGraphic" in2="effect1_dropShadow_2021_4705" result="shape"/>
</filter>
</defs>
</svg>
