<svg width="19" height="20" viewBox="0 0 19 20" fill="none" xmlns="http://www.w3.org/2000/svg">
<path d="M8.82495 8.37545C8.97511 8.52313 9.14671 8.58642 9.33977 8.58642C9.53283 8.58642 9.70444 8.52313 9.8546 8.37545L12.107 6.16028C12.3858 5.88602 12.3858 5.44299 12.107 5.16873C11.8281 4.89447 11.3776 4.89447 11.0988 5.16873L10.0691 6.18138V0.696196C10.0691 0.316453 9.74734 0 9.36123 0C8.97511 0 8.63189 0.295356 8.63189 0.675099V6.16028L7.60224 5.14763C7.32337 4.87337 6.8729 4.87337 6.59404 5.14763C6.31517 5.42189 6.31517 5.86492 6.59404 6.13918L8.82495 8.37545Z" fill="white"/>
<path d="M17.9447 18.6055H0.740906C0.354786 18.6055 0.03302 18.9219 0.03302 19.3017C0.03302 19.6814 0.354786 19.9979 0.740906 19.9979H17.9447C18.3308 19.9979 18.6526 19.6814 18.6526 19.3017C18.6526 18.9219 18.3522 18.6055 17.9447 18.6055Z" fill="white"/>
<path d="M0.674305 16.7075C0.97462 16.7286 7.88187 17.1927 9.34054 17.1927C10.7992 17.1927 17.7065 16.7286 18.0068 16.7075C18.3929 16.6864 18.6932 16.3489 18.6718 15.948C18.6503 15.5683 18.3071 15.2729 17.8995 15.294C17.8352 15.294 10.7349 15.7793 9.34054 15.7793C7.94622 15.7793 0.845914 15.294 0.78156 15.294C0.395441 15.2729 0.0522234 15.5683 0.0093212 15.948C-0.0121299 16.3489 0.288185 16.6864 0.674305 16.7075Z" fill="white"/>
<path d="M17.8357 12.0058C17.7714 12.0058 12.1297 12.9762 9.34108 12.9762C6.57389 12.9762 0.910801 12.0269 0.846448 12.0058C0.460328 11.9425 0.0956596 12.1957 0.0098553 12.5754C-0.054498 12.9551 0.202915 13.3138 0.589035 13.3982C0.824997 13.4404 6.42373 14.3897 9.31963 14.3897C12.2155 14.3897 17.8143 13.4404 18.0502 13.3982C18.4363 13.3349 18.6938 12.9762 18.6294 12.5754C18.5865 12.1957 18.2218 11.9425 17.8357 12.0058Z" fill="white"/>
<path d="M0.502572 10.065C0.674181 10.1283 4.9644 11.5629 9.34042 11.5629C13.7164 11.5629 18.0067 10.1283 18.1783 10.065C18.5429 9.93845 18.7574 9.53761 18.6287 9.15787C18.5 8.79922 18.0925 8.58825 17.7063 8.71483C17.6634 8.73593 13.4805 10.1283 9.34042 10.1283C5.20036 10.1283 1.0174 8.71483 0.974496 8.71483C0.588376 8.58825 0.180805 8.77812 0.052099 9.15787C-0.0766075 9.53761 0.116452 9.93845 0.502572 10.065Z" fill="white"/>
</svg>
