<svg width="20" height="20" viewBox="0 0 20 20" fill="none" xmlns="http://www.w3.org/2000/svg">
<path fill-rule="evenodd" clip-rule="evenodd" d="M12.0911 16.2025L15.0371 19.1493C15.582 19.6941 16.321 20 17.091 20C17.8619 20 18.6009 19.6941 19.1458 19.1493C19.1475 19.1475 19.1484 19.1467 19.1492 19.1458C19.6941 18.601 20 17.862 20 17.0911C20 16.3203 19.6941 15.5813 19.1492 15.0356L16.2032 12.0897C17.6684 8.94537 17.1029 5.08343 14.5068 2.4882C11.1896 -0.828818 5.80375 -0.829698 2.48657 2.48734C-0.829726 5.80348 -0.828846 11.1891 2.48915 14.507C5.08362 17.1022 8.94483 17.6676 12.0911 16.2025ZM15.117 13.8316C14.9279 14.0662 14.726 14.2914 14.5094 14.5079C14.292 14.7253 14.0659 14.9282 13.8331 15.1163L16.4506 17.7338C16.6208 17.9039 16.8511 18.0002 17.0909 18.0002C17.3324 18.0002 17.5618 17.9039 17.732 17.7338L17.7346 17.7321C17.9047 17.5619 18.0001 17.3308 18.0001 17.091C18.0001 16.8504 17.9047 16.6201 17.7346 16.4499L15.117 13.8316ZM3.9013 3.90103C6.43814 1.3652 10.5563 1.3652 13.0932 3.90275C15.63 6.43947 15.6309 10.5584 13.0949 13.0942C10.5581 15.63 6.43986 15.63 3.90302 13.0933C1.36619 10.5557 1.36531 6.43687 3.9013 3.90103Z" fill="white" fill-opacity="0.5"/>
</svg>
