<svg width="47" height="42" viewBox="0 0 47 42" fill="none" xmlns="http://www.w3.org/2000/svg">
<g filter="url(#filter0_d_72_17449)">
<path fill-rule="evenodd" clip-rule="evenodd" d="M19.7111 10.3103C19.9069 12.107 21.3011 13.1647 23.1931 13.1647C24.8498 13.1465 26.4296 12.4711 26.6673 10.3122L29.0463 11.0224C30.4506 11.4407 31.0655 12.0263 32.1586 12.9722L36.3089 16.5581L33.3351 19.9669L31.3968 18.2958V17.6984C31.4291 17.1074 30.4653 17.1074 30.4972 17.6984V32.1105L15.8799 32.107V17.6981C15.8917 17.1449 14.9668 17.1454 14.9796 17.6981V18.2955L13.0437 19.9634L10.0695 16.5568L14.2178 12.9722C15.3129 12.0263 15.9275 11.4391 17.3321 11.0208L19.7111 10.3103ZM20.6053 10.2574C21.4627 10.4285 22.3007 10.5081 23.1918 10.5034C24.0805 10.5097 24.9151 10.4304 25.7708 10.2609C25.5725 12.0566 24.3434 12.3054 23.1884 12.3204C22.0334 12.3054 20.8039 12.0562 20.6053 10.2574ZM26.2599 9.30477C26.1769 9.30318 26.0952 9.32484 26.0228 9.36467C25.0804 9.59024 24.193 9.6667 23.1758 9.66511C22.1592 9.66511 21.2559 9.58514 20.2866 9.3481C20.2318 9.32803 20.175 9.31783 20.1182 9.31974C20.0512 9.32134 19.9836 9.33631 19.9237 9.36467L17.061 10.2176C15.4898 10.6853 14.6909 11.4155 13.6086 12.3513L9.14647 16.2064C8.97097 16.3577 8.94955 16.6113 9.10191 16.784L12.6468 20.8443C12.8097 21.0339 13.1107 21.0549 13.3022 20.8892L14.9796 19.4418V32.5279C14.9779 32.762 15.1813 32.9526 15.4313 32.951H30.9468C31.1948 32.951 31.3968 32.762 31.3968 32.5295V19.4409L33.0759 20.8895C33.2674 21.0552 33.5667 21.0339 33.7316 20.8446L37.2759 16.7843C37.4245 16.6113 37.4051 16.3596 37.2299 16.2083L32.7698 12.3532C31.6856 11.419 30.8883 10.6853 29.3171 10.2176L26.5115 9.38283C26.4371 9.33344 26.35 9.30668 26.2599 9.30477Z" fill="white"/>
</g>
<defs>
<filter id="filter0_d_72_17449" x="0.151538" y="0.456225" width="46.0724" height="41.3415" filterUnits="userSpaceOnUse" color-interpolation-filters="sRGB">
<feFlood flood-opacity="0" result="BackgroundImageFix"/>
<feColorMatrix in="SourceAlpha" type="matrix" values="0 0 0 0 0 0 0 0 0 0 0 0 0 0 0 0 0 0 127 0" result="hardAlpha"/>
<feOffset/>
<feGaussianBlur stdDeviation="4.42423"/>
<feComposite in2="hardAlpha" operator="out"/>
<feColorMatrix type="matrix" values="0 0 0 0 0.784314 0 0 0 0 0.917647 0 0 0 0 0.980392 0 0 0 0.5 0"/>
<feBlend mode="plus-lighter" in2="BackgroundImageFix" result="effect1_dropShadow_72_17449"/>
<feBlend mode="normal" in="SourceGraphic" in2="effect1_dropShadow_72_17449" result="shape"/>
</filter>
</defs>
</svg>
