<svg width="16" height="17" viewBox="0 0 16 17" fill="none" xmlns="http://www.w3.org/2000/svg">
<g clip-path="url(#clip0_139_9760)">
<path d="M12.8484 0H0.727245C0.39255 0 0.121155 0.281858 0.121155 0.629568V4.40735C0.121155 4.75506 0.39255 5.0371 0.727245 5.0371H12.8484C13.1832 5.0371 13.4545 4.75506 13.4545 4.40735V3.14821H14.6666V6.92599H6.78788C6.4531 6.92599 6.18179 7.20785 6.18179 7.55556V9.44444H5.2727V15.4258C5.2727 16.2952 5.95106 17 6.78788 17C7.62462 17 8.30297 16.2952 8.30297 15.4258V9.44444H7.39388V8.18512H15.2727C15.6075 8.18512 15.8788 7.90327 15.8788 7.55556V2.51846C15.8788 2.17075 15.6075 1.88889 15.2727 1.88889H13.4545V0.629568C13.4545 0.281858 13.1832 0 12.8484 0Z" fill="white"/>
</g>
<defs>
<clipPath id="clip0_139_9760">
<rect width="16" height="17" fill="white"/>
</clipPath>
</defs>
</svg>
