<svg width="19" height="16" viewBox="0 0 19 16" fill="none" xmlns="http://www.w3.org/2000/svg">
<path d="M15.5141 12.9689C15.3544 12.4431 15.0795 12.0468 14.6449 11.7218L15.5141 12.9689ZM15.5141 12.9689L15.2315 13.0529C15.1128 12.6284 14.8322 12.2292 14.4717 11.9534C14.4712 11.9531 14.4708 11.9527 14.4704 11.9524C14.3035 11.8249 14.1195 11.7239 13.9265 11.659L13.9254 11.6586C13.8375 11.6293 13.7465 11.6063 13.6536 11.5896C13.6531 11.5895 13.6527 11.5894 13.6522 11.5894C13.4081 11.5457 13.1509 11.5454 12.9024 11.5874C12.9016 11.5875 12.9009 11.5876 12.9001 11.5878C12.7997 11.6048 12.7008 11.6288 12.6048 11.6596M15.5141 12.9689L15.232 13.0546C15.2353 13.0666 15.2386 13.0788 15.2417 13.0909L15.2418 13.0916C15.281 13.2458 15.2951 13.4323 15.2955 13.5973C15.2955 13.6062 15.2955 13.6151 15.2954 13.6241C15.2944 13.7839 15.2804 13.9575 15.2475 14.1044L15.2462 14.1099L15.2462 14.1099C15.2397 14.1371 15.2326 14.1643 15.2248 14.1912L15.5141 14.2793L15.2242 14.1932M12.6048 11.6596C12.6048 11.6596 12.6049 11.6596 12.6049 11.6596L12.6521 11.8068C12.6521 11.8068 12.652 11.8068 12.652 11.8068L12.6048 11.6596ZM12.6048 11.6596C12.3277 11.7484 12.0767 11.9005 11.866 12.0975C11.8658 12.0978 11.8655 12.098 11.8653 12.0982C11.5803 12.3649 11.369 12.7139 11.2663 13.0998L11.2663 13.0998L11.265 13.1049C11.2508 13.1607 11.2398 13.2202 11.2315 13.2814C11.2314 13.2817 11.2314 13.282 11.2313 13.2823C11.216 13.3949 11.2098 13.513 11.2101 13.6231C11.2104 13.7928 11.2262 13.9828 11.2677 14.1437C11.2716 14.1589 11.2757 14.1741 11.28 14.1893C11.2801 14.1898 11.2802 14.1903 11.2804 14.1908C11.4765 14.8834 12.0812 15.4804 12.774 15.6293L12.7753 15.6295C12.7882 15.6323 12.8013 15.6349 12.8147 15.6374M12.8147 15.6374L12.7364 15.9544L12.8158 15.6376M12.8147 15.6374C12.815 15.6375 12.8154 15.6375 12.8158 15.6376M12.8147 15.6374L12.8158 15.6376M12.8158 15.6376C13.0785 15.6865 13.4349 15.6919 13.6825 15.6405L13.6827 15.6405C13.6873 15.6395 13.692 15.6385 13.6966 15.6375C13.6968 15.6375 13.697 15.6374 13.6972 15.6374C14.0676 15.5569 14.4079 15.3481 14.6716 15.0895C14.9192 14.8468 15.1245 14.5357 15.2242 14.1932M15.2242 14.1932L15.0765 14.1492C15.0766 14.1487 15.0768 14.1482 15.0769 14.1477M15.2242 14.1932L15.0769 14.1477M15.0769 14.1477C15.0856 14.1186 15.0924 14.0949 15.0978 14.0747C15.0981 14.0735 15.0985 14.0723 15.0988 14.0711C15.1107 14.0261 15.1156 13.9988 15.1192 13.9663C15.1258 13.9058 15.1283 13.8198 15.1283 13.6241C15.1283 13.4284 15.1258 13.3424 15.1192 13.2819C15.1146 13.2396 15.1076 13.2061 15.086 13.1312C15.0859 13.131 15.0859 13.1309 15.0858 13.1307C15.0831 13.1213 15.0801 13.1112 15.0769 13.1003L15.0769 14.1477ZM15.0769 14.1477C14.8626 14.8498 14.3468 15.3427 13.666 15.5113L13.6652 15.5115C13.6624 15.5122 13.6594 15.5129 13.6563 15.5136C13.6563 15.5136 13.6562 15.5136 13.6562 15.5136C13.5855 15.5294 13.4371 15.5435 13.257 15.5435C13.0698 15.5435 12.9153 15.5282 12.8464 15.5114C12.8318 15.5077 12.8172 15.5039 12.8028 15.4999C12.8025 15.4998 12.8021 15.4997 12.8018 15.4996C12.1269 15.3143 11.6187 14.8127 11.4323 14.1481L11.4317 14.1459C11.4283 14.1341 11.425 14.1207 11.4217 14.1058L11.7101 14.031M15.0769 14.1477L11.4214 14.1045L11.7101 14.031M11.7101 14.031C11.8515 14.5858 12.341 15.0693 12.8699 15.1829C13.0819 15.2278 13.3987 15.2331 13.5898 15.1935C14.137 15.0799 14.6711 14.5568 14.802 14.0046C14.8517 13.7826 14.8517 13.4101 14.7994 13.204C14.6737 12.7126 14.2522 12.2502 13.781 12.0917C13.4642 11.986 13.0819 11.986 12.7442 12.0943C12.2494 12.2528 11.8489 12.6861 11.7075 13.2172C11.6525 13.4339 11.6525 13.809 11.7101 14.031ZM0.890679 1.89867L0.90068 1.89911H0.910691H13.684H13.8744L13.8823 1.89113C13.9142 1.89055 13.9502 1.89 13.9899 1.88949C14.169 1.88721 14.4156 1.8859 14.6867 1.8859H15.6763H15.9233C15.9014 1.9618 15.8785 2.04138 15.8552 2.12313C15.717 2.60752 15.4896 3.38541 15.3534 3.85073C15.2173 4.31576 15.0841 4.76619 15.0585 4.85171L15.0583 4.85166L15.055 4.8639C15.0385 4.92495 14.9876 5.09716 14.9291 5.29477L14.9291 5.29487L14.8799 5.46124L14.8795 5.46266C14.5577 6.564 14.138 8.01131 13.8951 8.86069C13.8405 8.74313 13.7489 8.68217 13.7299 8.6697C13.6795 8.6366 13.6343 8.62156 13.6197 8.61682C13.5844 8.60535 13.555 8.60066 13.5468 8.59934L13.5466 8.59931C13.5241 8.59572 13.5038 8.59406 13.4939 8.59331C13.4702 8.59148 13.4417 8.59019 13.4124 8.58915C13.3517 8.58699 13.2643 8.58511 13.1523 8.58343C12.9273 8.58004 12.5919 8.57731 12.1482 8.57516C11.2601 8.57086 9.93252 8.56888 8.17309 8.56888H2.9664L2.93089 8.55206L2.93092 8.55201L2.92447 8.54908C2.81098 8.49746 2.78358 8.46473 2.77062 8.4435C2.76985 8.44131 2.76219 8.42464 2.74565 8.38423C2.726 8.33622 2.70038 8.27122 2.67037 8.19314C2.61054 8.03752 2.53577 7.83656 2.46072 7.62894C1.9735 6.27014 1.05978 3.74158 0.748013 2.88493L0.747648 2.88393C0.665369 2.65948 0.589752 2.44212 0.534147 2.27409C0.506258 2.18982 0.484118 2.1201 0.468893 2.06916C0.463196 2.05009 0.459341 2.03645 0.456822 2.02733C0.45984 1.98951 0.479848 1.94208 0.496691 1.92508C0.496691 1.92508 0.496691 1.92508 0.496691 1.92508L0.496692 1.92508C0.49697 1.92479 0.537904 1.88152 0.705576 1.89052L0.710035 1.89074L0.890679 1.89867ZM16.2986 0.971188C16.2938 0.97456 16.288 0.978777 16.2815 0.983885C16.2961 0.933182 16.3107 0.882348 16.3246 0.833954L16.3251 0.832091C16.3549 0.726495 16.3786 0.649928 16.3994 0.59197C16.4203 0.533705 16.4344 0.505618 16.4419 0.492981C16.442 0.492774 16.4421 0.492574 16.4422 0.492381C16.4461 0.490136 16.4523 0.486769 16.4616 0.482281L16.4617 0.482338L16.4684 0.478909L16.5112 0.457315L18.4459 0.47143L18.4645 0.482934C18.4646 0.482998 18.4648 0.483061 18.4649 0.483124C18.4728 0.488055 18.4781 0.491568 18.4814 0.493882C18.4859 0.500987 18.4953 0.517106 18.511 0.548786L18.5109 0.548827L18.5152 0.556936C18.5293 0.584193 18.5379 0.601418 18.5433 0.612903C18.5429 0.623707 18.5421 0.639832 18.5405 0.665062C18.5371 0.715922 18.5176 0.767949 18.4884 0.808207C18.4717 0.831171 18.4568 0.844025 18.4468 0.850904C18.4402 0.851336 18.4327 0.851791 18.4242 0.852263C18.3727 0.855113 18.2997 0.857782 18.2084 0.860044C18.0268 0.864548 17.784 0.86717 17.5194 0.86717C17.2572 0.86717 17.0155 0.86916 16.8374 0.872884C16.7491 0.87473 16.6726 0.877077 16.6159 0.880063C16.5888 0.881487 16.5589 0.883422 16.5321 0.886397C16.5207 0.887664 16.4967 0.890494 16.4695 0.896461C16.4579 0.898999 16.4271 0.90598 16.3906 0.920884C16.3727 0.928186 16.3377 0.943613 16.2986 0.971188ZM18.4788 0.848381C18.4826 0.847815 18.4848 0.847588 18.4849 0.847616C18.485 0.847644 18.4831 0.847927 18.4788 0.848381Z" stroke="white" stroke-width="0.913043"/>
</svg>
