<svg width="279" height="325" viewBox="0 0 279 325" fill="none" xmlns="http://www.w3.org/2000/svg">
<g filter="url(#filter0_ddddi_2001_4466)">
<path d="M207.541 237.5C207.541 244.338 178.318 260.5 142.27 260.5C106.222 260.5 77 244.338 77 237.5C77 230.662 106.222 214.5 142.27 214.5C178.318 214.5 207.541 230.662 207.541 237.5Z" fill="#0D2F4A"/>
</g>
<g style="mix-blend-mode:plus-lighter" filter="url(#filter1_f_2001_4466)">
<path d="M142.27 246.203C166.661 246.203 204.137 238.235 207.323 237.548C207.465 237.517 207.541 237.397 207.541 237.252C207.541 237.058 207.385 236.908 207.195 236.943C203.251 237.671 166.477 244.338 142.27 244.338C118.063 244.338 81.2897 237.671 77.346 236.943C77.1556 236.908 77 237.058 77 237.252C77 237.397 77.0755 237.517 77.2175 237.548C80.4036 238.235 117.88 246.203 142.27 246.203Z" stroke="#0074E9" stroke-linecap="round"/>
</g>
<g filter="url(#filter2_f_2001_4466)">
<path d="M142.27 246.203C166.661 246.203 204.137 238.235 207.323 237.548C207.465 237.517 207.541 237.397 207.541 237.252C207.541 237.058 207.385 236.908 207.195 236.943C203.251 237.671 166.477 244.338 142.27 244.338C118.063 244.338 81.2897 237.671 77.346 236.943C77.1556 236.908 77 237.058 77 237.252C77 237.397 77.0755 237.517 77.2175 237.548C80.4036 238.235 117.88 246.203 142.27 246.203Z" stroke="#0074E9" stroke-linecap="round"/>
</g>
<g filter="url(#filter3_f_2001_4466)">
<path d="M142.27 246.203C166.661 246.203 204.137 238.235 207.323 237.548C207.465 237.517 207.541 237.397 207.541 237.252C207.541 237.058 207.385 236.908 207.195 236.943C203.251 237.671 166.477 244.338 142.27 244.338C118.063 244.338 81.2897 237.671 77.346 236.943C77.1556 236.908 77 237.058 77 237.252C77 237.397 77.0755 237.517 77.2175 237.548C80.4036 238.235 117.88 246.203 142.27 246.203Z" stroke="white" stroke-linecap="round"/>
</g>
<g filter="url(#filter4_f_2001_4466)">
<path d="M142.27 246.203C166.661 246.203 204.137 238.235 207.323 237.548C207.465 237.517 207.541 237.397 207.541 237.252C207.541 237.058 207.385 236.908 207.195 236.943C203.251 237.671 166.477 244.338 142.27 244.338C118.063 244.338 81.2897 237.671 77.346 236.943C77.1556 236.908 77 237.058 77 237.252C77 237.397 77.0755 237.517 77.2175 237.548C80.4036 238.235 117.88 246.203 142.27 246.203Z" stroke="white" stroke-width="0.5" stroke-linecap="round"/>
</g>
<g style="mix-blend-mode:plus-lighter" opacity="0.8" filter="url(#filter5_f_2001_4466)">
<path d="M109.5 225.5L4 171.5L6 4H275V173.5L166 225.5H109.5Z" fill="url(#paint0_linear_2001_4466)"/>
</g>
<g opacity="0.72" filter="url(#filter6_f_2001_4466)">
<rect x="84" y="248.5" width="124" height="24" rx="12" fill="#0A1D2C"/>
</g>
<defs>
<filter id="filter0_ddddi_2001_4466" x="45.4112" y="208.83" width="193.719" height="162.636" filterUnits="userSpaceOnUse" color-interpolation-filters="sRGB">
<feFlood flood-opacity="0" result="BackgroundImageFix"/>
<feColorMatrix in="SourceAlpha" type="matrix" values="0 0 0 0 0 0 0 0 0 0 0 0 0 0 0 0 0 0 127 0" result="hardAlpha"/>
<feOffset dy="4.85981"/>
<feGaussianBlur stdDeviation="5.2648"/>
<feColorMatrix type="matrix" values="0 0 0 0 0.0235294 0 0 0 0 0.0666667 0 0 0 0 0.0980392 0 0 0 0.22 0"/>
<feBlend mode="normal" in2="BackgroundImageFix" result="effect1_dropShadow_2001_4466"/>
<feColorMatrix in="SourceAlpha" type="matrix" values="0 0 0 0 0 0 0 0 0 0 0 0 0 0 0 0 0 0 127 0" result="hardAlpha"/>
<feOffset dy="19.4393"/>
<feGaussianBlur stdDeviation="9.71963"/>
<feColorMatrix type="matrix" values="0 0 0 0 0.0235294 0 0 0 0 0.0666667 0 0 0 0 0.0980392 0 0 0 0.19 0"/>
<feBlend mode="normal" in2="effect1_dropShadow_2001_4466" result="effect2_dropShadow_2001_4466"/>
<feColorMatrix in="SourceAlpha" type="matrix" values="0 0 0 0 0 0 0 0 0 0 0 0 0 0 0 0 0 0 127 0" result="hardAlpha"/>
<feOffset dy="44.5483"/>
<feGaussianBlur stdDeviation="13.3645"/>
<feColorMatrix type="matrix" values="0 0 0 0 0.0235294 0 0 0 0 0.0666667 0 0 0 0 0.0980392 0 0 0 0.11 0"/>
<feBlend mode="normal" in2="effect2_dropShadow_2001_4466" result="effect3_dropShadow_2001_4466"/>
<feColorMatrix in="SourceAlpha" type="matrix" values="0 0 0 0 0 0 0 0 0 0 0 0 0 0 0 0 0 0 127 0" result="hardAlpha"/>
<feOffset dy="79.3769"/>
<feGaussianBlur stdDeviation="15.7944"/>
<feColorMatrix type="matrix" values="0 0 0 0 0.0235294 0 0 0 0 0.0666667 0 0 0 0 0.0980392 0 0 0 0.03 0"/>
<feBlend mode="normal" in2="effect3_dropShadow_2001_4466" result="effect4_dropShadow_2001_4466"/>
<feBlend mode="normal" in="SourceGraphic" in2="effect4_dropShadow_2001_4466" result="shape"/>
<feColorMatrix in="SourceAlpha" type="matrix" values="0 0 0 0 0 0 0 0 0 0 0 0 0 0 0 0 0 0 127 0" result="hardAlpha"/>
<feOffset/>
<feGaussianBlur stdDeviation="5.1028"/>
<feComposite in2="hardAlpha" operator="arithmetic" k2="-1" k3="1"/>
<feColorMatrix type="matrix" values="0 0 0 0 0.137511 0 0 0 0 0.42211 0 0 0 0 0.736667 0 0 0 1 0"/>
<feBlend mode="normal" in2="shape" result="effect5_innerShadow_2001_4466"/>
</filter>
<filter id="filter1_f_2001_4466" x="65.7303" y="225.668" width="153.081" height="31.8051" filterUnits="userSpaceOnUse" color-interpolation-filters="sRGB">
<feFlood flood-opacity="0" result="BackgroundImageFix"/>
<feBlend mode="normal" in="SourceGraphic" in2="BackgroundImageFix" result="shape"/>
<feGaussianBlur stdDeviation="5.38487" result="effect1_foregroundBlur_2001_4466"/>
</filter>
<filter id="filter2_f_2001_4466" x="73.5" y="233.438" width="137.541" height="16.2656" filterUnits="userSpaceOnUse" color-interpolation-filters="sRGB">
<feFlood flood-opacity="0" result="BackgroundImageFix"/>
<feBlend mode="normal" in="SourceGraphic" in2="BackgroundImageFix" result="shape"/>
<feGaussianBlur stdDeviation="1.5" result="effect1_foregroundBlur_2001_4466"/>
</filter>
<filter id="filter3_f_2001_4466" x="71.1816" y="231.119" width="142.178" height="20.9024" filterUnits="userSpaceOnUse" color-interpolation-filters="sRGB">
<feFlood flood-opacity="0" result="BackgroundImageFix"/>
<feBlend mode="normal" in="SourceGraphic" in2="BackgroundImageFix" result="shape"/>
<feGaussianBlur stdDeviation="2.6592" result="effect1_foregroundBlur_2001_4466"/>
</filter>
<filter id="filter4_f_2001_4466" x="75.4204" y="235.358" width="133.7" height="12.4248" filterUnits="userSpaceOnUse" color-interpolation-filters="sRGB">
<feFlood flood-opacity="0" result="BackgroundImageFix"/>
<feBlend mode="normal" in="SourceGraphic" in2="BackgroundImageFix" result="shape"/>
<feGaussianBlur stdDeviation="0.664799" result="effect1_foregroundBlur_2001_4466"/>
</filter>
<filter id="filter5_f_2001_4466" x="0.2" y="0.2" width="278.6" height="229.1" filterUnits="userSpaceOnUse" color-interpolation-filters="sRGB">
<feFlood flood-opacity="0" result="BackgroundImageFix"/>
<feBlend mode="normal" in="SourceGraphic" in2="BackgroundImageFix" result="shape"/>
<feGaussianBlur stdDeviation="1.9" result="effect1_foregroundBlur_2001_4466"/>
</filter>
<filter id="filter6_f_2001_4466" x="65.2" y="229.7" width="161.6" height="61.6" filterUnits="userSpaceOnUse" color-interpolation-filters="sRGB">
<feFlood flood-opacity="0" result="BackgroundImageFix"/>
<feBlend mode="normal" in="SourceGraphic" in2="BackgroundImageFix" result="shape"/>
<feGaussianBlur stdDeviation="9.4" result="effect1_foregroundBlur_2001_4466"/>
</filter>
<linearGradient id="paint0_linear_2001_4466" x1="140.5" y1="4" x2="140.5" y2="225.5" gradientUnits="userSpaceOnUse">
<stop stop-color="#2383AE" stop-opacity="0"/>
<stop offset="1" stop-color="#2383AE"/>
</linearGradient>
</defs>
</svg>
