<svg width="49" height="67" viewBox="0 0 49 67" fill="none" xmlns="http://www.w3.org/2000/svg">
<path d="M15.2073 15.6542C14.5397 14.9439 14.79 13.8131 15.6802 13.5607C16.7001 13.2617 17.5995 14.3178 17.1545 15.271C16.9412 15.7197 16.5054 15.9813 15.9491 15.9813C15.5689 15.9813 15.4669 15.9346 15.2073 15.6542Z" fill="#556979"/>
<path fill-rule="evenodd" clip-rule="evenodd" d="M15.0867 3.87856C15.0218 2.1776 14.9755 0.616832 14.9755 0.392529V0H16.0232C17.1266 0 18.0075 0.102805 18.9162 0.327108C19.695 0.523372 21.2435 1.31778 21.7906 1.80377L22.2542 2.21499L23.7377 2.27106C27.7804 2.41125 32.0828 3.84118 35.6526 6.24308C41.0119 9.83192 44.4705 15.3086 45.4904 21.8228C45.6295 22.6732 45.6944 23.6826 45.7315 25.1873C45.7871 27.7013 45.6573 29.1219 45.1473 31.664C44.7672 33.5893 44.4519 34.7108 43.3022 38.2249C41.6332 43.3464 41.5034 43.9539 41.4292 46.7484C41.3921 47.9914 41.4199 49.0662 41.4941 49.7484L41.6054 50.8138L42.1802 51.0849C43.7101 51.8139 44.5447 53.5522 44.1552 55.1971L44.0254 55.7672L44.6096 56.0195C45.3884 56.3653 45.9355 56.8607 46.3249 57.5896C46.6216 58.1411 46.6402 58.2252 46.6402 59.085V59.9916L47.0389 60.1411C47.5767 60.356 48.4112 61.1411 48.6986 61.7205C49.0139 62.3467 49.0973 63.4963 48.8748 64.1692C48.4854 65.3468 47.5025 66.0851 46.0838 66.2533C44.3407 66.4776 39.4913 66.7673 34.9108 66.9262C30.525 67.0758 13.937 66.9823 10.3857 66.786C6.69534 66.5804 3.65405 66.3655 2.87518 66.2533C2.04067 66.1318 1.40089 65.8328 0.900188 65.3187C-0.240298 64.1411 -0.305204 62.3561 0.751832 61.057C1.09491 60.6364 1.91086 60.0944 2.20758 60.0944C2.35593 60.0944 2.3652 60.0289 2.30957 59.4962C2.14267 57.8794 3.14407 56.3466 4.59054 55.9728L5.02634 55.8606L4.88725 55.2905C4.45146 53.412 5.38796 51.6082 7.11259 51.0195L7.58548 50.8606L7.59475 48.1689C7.61329 46.1409 7.65966 45.225 7.77092 44.5053C8.48489 40.1127 9.94063 36.6921 12.4256 33.5519C13.2694 32.4865 13.4641 32.2715 16.0047 29.6266C17.2101 28.3649 18.5267 26.9537 18.9347 26.4864C19.6672 25.6546 20.5017 24.505 20.4275 24.4396C20.409 24.4209 20.1216 24.4677 19.797 24.5518C19.1758 24.7106 17.1915 24.7761 16.7279 24.6452C16.4961 24.5892 16.4776 24.6078 16.4127 24.935C16.2921 25.6172 15.8007 26.477 15.1702 27.1126C14.141 28.1593 12.9634 28.6173 11.35 28.6079C10.2188 28.6079 9.39357 28.4116 8.39216 27.9256C7.74311 27.6079 7.45567 27.4023 6.76952 26.692C5.56413 25.477 5.02634 24.3275 4.9058 22.7854C4.78526 21.2527 5.19324 19.8695 6.14828 18.5704C6.92715 17.4956 12.3978 10.2058 13.2694 9.06556C13.6866 8.52349 14.2893 7.83189 14.6138 7.52348L15.198 6.96272L15.0867 3.87856ZM22.0038 7.27114C21.5588 5.40195 20.5574 4.0281 19.1387 3.3365C18.7585 3.14958 18.2949 2.97201 18.1095 2.93462L17.7571 2.87855V4.27109L18.23 4.67297C18.8142 5.1683 19.1202 5.6356 19.2963 6.27112C19.4632 6.92534 19.4632 7.43936 19.2778 8.71976C19.0738 10.1123 19.046 10.1871 18.6473 10.1871C18.4062 10.1871 18.2022 10.0749 17.6737 9.62631C17.3028 9.3179 16.969 9.06556 16.9319 9.06556C16.7835 9.06556 16.2365 9.75716 13.121 13.86C8.16057 20.4067 7.86042 20.7825 7.73275 21.2105C7.71771 21.2609 7.70506 21.3121 7.68747 21.3742C7.49275 22.0377 7.54839 22.963 7.81728 23.5798C8.02127 24.0471 8.80941 24.8882 9.2823 25.1593L9.56047 25.3181L10.2373 24.449C10.8864 23.6172 11.3871 23.1779 11.5262 23.3181C11.5633 23.3461 11.6004 23.9817 11.6189 24.72L11.656 26.0565L11.9991 25.963C12.7594 25.748 13.3065 25.3181 13.6217 24.7013C13.6959 24.5424 13.8257 24.0377 13.9092 23.5891C14.0668 22.6545 14.2522 22.2901 14.7066 21.9723C15.0125 21.7667 15.0589 21.7573 16.0418 21.8321C16.6074 21.8788 17.6088 21.9069 18.2671 21.9162C19.7321 21.9162 20.4924 21.7106 21.5309 21.0097C23.5801 19.6171 24.4424 17.2806 23.8768 14.5797C23.5059 12.8133 23.5245 12.5703 24.0808 12.2806C24.4239 12.103 24.8689 12.1684 25.212 12.4394C25.5365 12.7011 25.8796 13.4021 26.1207 14.2806C26.4081 15.3367 26.3989 17.6545 26.1207 18.8134C25.8147 20.0751 25.824 20.0938 26.6585 20.0938C27.2983 20.0938 27.5579 19.9442 27.7155 19.4956C28.2719 17.9722 28.142 15.0096 27.4374 13.1217C26.5936 10.8413 24.7577 8.87864 22.9125 8.29919C22.5509 8.18704 22.2449 8.08423 22.2264 8.07489C22.2078 8.06554 22.1058 7.70105 22.0038 7.27114ZM28.4202 5.99074C28.4202 5.8599 28.1235 5.7384 27.2612 5.5141C26.9088 5.42999 26.4174 5.32718 26.1856 5.2898C25.7962 5.23372 25.7591 5.24307 25.6571 5.46737C25.5922 5.59821 25.5458 5.72906 25.5458 5.7571C25.5458 5.80382 25.722 5.87859 27.0479 6.35524L28.0401 6.71973L28.2348 6.41131C28.3368 6.23374 28.4202 6.04682 28.4202 5.99074ZM33.4365 8.04685C33.2881 7.91601 32.6762 7.53282 32.092 7.20572C31.4059 6.83188 30.8681 6.59823 30.6085 6.57019C30.2561 6.52346 30.1912 6.5515 29.9687 6.82253C29.6627 7.18702 29.6256 7.84124 29.8945 8.2805C30.1078 8.63564 30.8681 9.3179 31.6562 9.85061C32.1569 10.1871 32.2867 10.2431 32.4258 10.1497C32.7133 9.97211 33.5292 8.90668 33.6127 8.58891C33.6869 8.32723 33.6683 8.26181 33.4365 8.04685ZM27.8453 8.90668C27.6784 8.7291 27.289 8.44872 26.983 8.27115C25.9909 7.71974 25.9723 7.79451 26.8717 8.7291C27.3446 9.22444 27.7804 9.62631 27.8361 9.62631C27.901 9.62631 27.9937 9.5422 28.0586 9.43005C28.142 9.26182 28.1142 9.18705 27.8453 8.90668ZM38.425 12.4581C37.813 11.6263 36.3758 10.2058 35.9956 10.0469C35.5042 9.84127 35.1519 9.86931 34.8273 10.1403C34.271 10.6263 34.2061 11.645 34.6975 12.5516C35.0591 13.2152 36.2924 14.86 36.4314 14.86C36.756 14.86 38.5084 13.6077 38.7124 13.2338C38.8237 13.0189 38.8051 12.9535 38.425 12.4581ZM30.321 12.0563C30.9608 12.0563 30.9979 11.5983 30.4137 10.9908C29.9316 10.5048 29.5885 10.4207 29.4958 10.7759C29.3567 11.3366 29.8296 12.0563 30.321 12.0563ZM34.2432 15.0189C34.1041 14.6264 33.3345 13.6357 32.9636 13.3834C32.7967 13.2712 32.5464 13.1778 32.4073 13.1778C32.1106 13.1778 31.7768 13.5049 31.7026 13.8881C31.5913 14.4675 32.4166 16.2152 32.8616 16.3273C33.1954 16.4115 34.0207 15.9535 34.1968 15.589C34.2988 15.3647 34.3174 15.2339 34.2432 15.0189ZM41.2994 17.1872C40.8728 16.3273 40.4556 15.8133 40.0383 15.6451C39.4171 15.3834 38.8608 15.589 38.5177 16.1965C38.1468 16.8601 38.3044 17.9535 38.9628 19.2713C39.1389 19.6452 39.2224 19.7199 39.4356 19.7199C39.7694 19.7199 41.2715 19.0751 41.559 18.804C41.8557 18.5236 41.8001 18.1872 41.2994 17.1872ZM32.0086 20.5984C31.888 19.3554 31.2297 17.2619 30.7012 16.4675C30.3952 16.0002 30.1819 15.8881 30.0058 16.103C29.9501 16.1778 29.8667 16.8227 29.8111 17.5797C29.7647 18.318 29.6627 19.262 29.5885 19.6732C29.4558 20.3362 29.399 20.5907 29.4965 20.6881C29.5626 20.7541 29.6994 20.748 29.9316 20.748C30.3488 20.748 31.3317 20.9629 31.888 21.1779C32.0549 21.2433 32.0642 21.2059 32.0086 20.5984ZM36.756 19.318C36.4036 18.4769 36.0605 17.9629 35.6618 17.6919C35.0221 17.2619 34.1134 17.5143 33.8259 18.2059C33.6312 18.6638 33.6405 19.5423 33.8445 20.7199C34.0114 21.6545 34.0207 21.6826 34.2617 21.6826C34.8644 21.6826 36.5056 21.1125 36.8301 20.7854C37.1176 20.4956 37.099 20.1405 36.756 19.318ZM42.5604 21.2246C42.4862 21.0751 42.3564 20.8882 42.2822 20.804C42.0411 20.5704 41.3272 20.6078 40.9285 20.8788C40.3536 21.2713 40.2423 21.6452 40.2609 22.991C40.2701 23.6359 40.3165 24.3462 40.3536 24.5798C40.4278 24.9536 40.4556 25.0004 40.6596 24.9723C41.049 24.9163 42.3749 24.5144 42.6809 24.3555C42.9406 24.2153 42.9776 24.1592 42.9776 23.8041C42.9776 23.1499 42.7087 21.5143 42.5604 21.2246ZM26.8439 22.5985C26.8439 22.2994 26.6585 22.0471 26.334 21.9069C25.6385 21.6171 25.2213 21.8321 24.7113 22.7293C24.694 22.7584 24.6753 22.7898 24.6553 22.8234C24.4187 23.2211 24.007 23.9131 23.6821 24.4303C23.3298 25.0004 23.0423 25.5518 23.0423 25.6546C23.0423 26.0191 23.3668 26.206 24.0437 26.2434C24.9709 26.2901 25.0451 26.206 26.0187 24.3555C26.473 23.4957 26.8439 22.7013 26.8439 22.5985ZM32.2589 23.7387C31.9437 23.1686 31.2853 22.6078 30.7383 22.4396C29.7183 22.1312 28.9673 22.505 28.2719 23.6639C27.9102 24.262 27.4281 25.3836 27.3168 25.9069C27.281 26.0624 27.259 26.1563 27.2932 26.219C27.3475 26.3184 27.5433 26.3392 28.0493 26.4023C29.1249 26.5425 30.6826 27.1967 31.8046 27.9817L32.2682 28.2995L32.3887 27.5892C32.4444 27.1967 32.5093 26.2808 32.5278 25.5611L32.5464 24.2527L32.2589 23.7387ZM37.9428 23.5798C37.7574 23.2246 37.4328 22.9349 37.0249 22.7573C36.4871 22.5424 35.9956 22.6078 35.4671 22.991C34.8737 23.4209 34.4935 24.477 34.4286 25.8882L34.4008 26.5892L36.4314 26.6172L38.4528 26.6359L38.3879 25.9163C38.3044 24.9256 38.1004 23.8976 37.9428 23.5798ZM42.9035 28.1032C43.0147 26.692 43.0055 26.6266 42.8386 26.4583C42.1431 25.7854 40.9192 26.5705 40.5761 27.9163C40.4649 28.3275 40.2609 30.2808 40.3165 30.3369C40.3721 30.4023 42.5975 29.7668 42.6995 29.664C42.7551 29.6079 42.8386 28.907 42.9035 28.1032ZM23.3205 28.1406C23.2648 27.9817 23.1165 27.8042 23.0052 27.7294C22.2078 27.1967 21.5217 27.6172 20.1401 29.4677C19.1851 30.7481 19.1016 31.2154 19.7507 31.5425C19.9547 31.636 20.3534 31.7388 20.6315 31.7575C21.2899 31.8042 21.5124 31.636 22.0316 30.6734C22.2449 30.2808 22.6529 29.6079 22.931 29.1874C23.4132 28.4584 23.4317 28.4023 23.3205 28.1406ZM31.5079 29.8042C31.0443 29.1313 30.117 28.5144 29.0136 28.1313C27.9844 27.7761 26.7234 27.8415 25.9909 28.2995C25.416 28.664 24.6 29.6266 24.1828 30.4584C23.6728 31.4491 23.6636 31.6547 24.1364 31.7294C25.3789 31.9257 26.6585 32.4397 27.4837 33.0659C27.7712 33.2809 27.8268 33.2902 28.0864 33.1874C28.8838 32.8697 29.7091 32.608 30.5714 32.421C31.0999 32.3089 31.5821 32.1687 31.647 32.1033C31.7304 32.0285 31.7768 31.7014 31.786 31.1126C31.8046 30.2621 31.7953 30.2248 31.5079 29.8042ZM37.8779 29.0098C37.7852 28.7948 37.5626 28.5051 37.3679 28.3556C36.6818 27.8322 35.6155 27.9817 34.9386 28.7014C34.4101 29.2715 33.9001 30.5892 33.7518 31.7949L33.6869 32.2995L34.373 32.2341C34.7439 32.1967 35.7267 32.1313 36.5427 32.0939L38.0355 32.0285L38.0912 31.365C38.1653 30.4584 38.0819 29.4771 37.8779 29.0098ZM41.9391 33.3743C42.2359 32.2622 42.3008 31.907 42.208 31.8509C42.1524 31.8136 42.0782 31.7855 42.0504 31.7855C41.0861 31.9538 40.539 32.421 40.0569 33.4771C39.8622 33.8977 39.5098 35.3183 39.5747 35.3931C39.6211 35.4304 41.4384 34.9538 41.4941 34.8884C41.5312 34.8416 41.7352 34.1687 41.9391 33.3743ZM19.8897 33.7482C19.8897 33.6454 19.7692 33.4211 19.6301 33.2622C19.3056 32.8883 18.638 32.7949 18.1373 33.0566C17.4233 33.4211 16.1438 35.5613 16.1994 36.2996C16.2272 36.6548 16.255 36.6921 16.5981 36.8043C16.8021 36.8697 17.2193 36.9538 17.5253 36.9819C18.2393 37.0473 18.4062 36.9164 18.8049 35.9818C18.9718 35.5987 19.2871 34.9818 19.5003 34.608C19.7136 34.2435 19.8897 33.851 19.8897 33.7482ZM26.4545 34.2248C26.1671 33.9164 25.6756 33.6173 25.1749 33.4304C23.9974 33.0192 22.9125 33.2341 22.0131 34.0753C21.3177 34.7388 20.5388 36.2155 20.5388 36.8697C20.5388 37.1314 20.6593 37.1594 21.9018 37.2342C22.7085 37.2716 23.4967 37.5613 24.2755 38.1034C24.461 38.2342 24.6371 38.3277 24.6464 38.309C24.665 38.2903 24.7484 38.038 24.8411 37.7576C25.1286 36.8884 25.7869 35.5893 26.232 35.0099L26.6585 34.4491L26.4545 34.2248ZM37.4607 35.0566C37.5256 34.5239 37.3123 34.0566 36.895 33.8136C35.8936 33.2248 34.5028 33.7856 33.761 35.0659C33.52 35.4865 33.112 36.6454 33.0192 37.1968L32.9636 37.5239L34.4286 37.5333C35.5691 37.5333 35.9771 37.5707 36.2924 37.6922C36.5242 37.7856 36.7374 37.823 36.7745 37.7856C36.8672 37.6828 37.3957 35.58 37.4607 35.0566ZM30.9237 36.2062C31.3039 34.636 31.3502 34.3276 31.2482 34.2155C31.0628 34.0285 30.2932 34.0005 29.774 34.1687C29.1991 34.3557 28.6335 34.7388 28.1884 35.2529C27.8082 35.6921 27.2612 36.7763 27.1685 37.2903L27.1128 37.6174L28.1606 37.6267C29.0785 37.6267 29.2825 37.6548 29.8111 37.8791C30.1356 38.0099 30.423 38.1127 30.4323 38.094C30.4508 38.0753 30.6734 37.2249 30.9237 36.2062ZM14.043 36.6015C14.1742 36.331 14.2744 36.1244 14.3079 36.0473C14.3635 35.9071 14.382 35.7949 14.3449 35.7949C14.243 35.7949 13.4084 36.9258 12.9263 37.7108C12.5461 38.3464 11.6374 40.1595 11.6374 40.2997C11.6374 40.3464 11.8043 40.3744 12.0083 40.3744C12.4256 40.3744 12.4441 40.3557 12.8058 39.3277C12.9356 38.9539 13.3065 38.1221 13.6217 37.4772C13.7698 37.1651 13.92 36.8552 14.043 36.6015ZM39.7509 40.1408L40.2516 38.6922C40.5205 37.8978 40.7338 37.2155 40.7245 37.1875C40.6967 37.1127 40.0476 37.2716 39.7509 37.4211C39.38 37.6174 38.9442 38.1221 38.6753 38.6454C38.4435 39.1221 38.1004 40.3464 38.1746 40.4305C38.2024 40.4492 38.564 40.3931 38.9906 40.309L39.7509 40.1408ZM17.5717 39.2155C17.5717 38.9445 17.3399 38.6267 17.0154 38.4585C16.6352 38.2623 15.9212 38.2809 15.5689 38.4959C14.9476 38.8791 14.4377 39.8511 14.1688 41.1688C14.0617 41.6912 14.0021 41.9683 14.1124 42.1189C14.241 42.2944 14.6001 42.2983 15.3834 42.3184C16.051 42.3277 16.6259 42.2997 16.7279 42.2436C16.8577 42.1782 16.9319 41.9726 17.0154 41.4866C17.0803 41.1221 17.2286 40.5053 17.3492 40.1221C17.4697 39.7296 17.5717 39.3277 17.5717 39.2155ZM23.9324 40.038C23.849 39.7296 23.0979 38.9912 22.6436 38.7856C22.0873 38.5239 21.0859 38.5333 20.5666 38.795C19.6858 39.2342 19.0738 40.2997 18.9903 41.5146L18.9347 42.2436H20.4183C21.5958 42.2436 22.0502 42.281 22.6251 42.4305C23.0238 42.5333 23.3576 42.6175 23.3668 42.6175C23.3854 42.6175 23.4225 42.4586 23.4503 42.2623C23.4874 42.0754 23.6172 41.5427 23.747 41.0847C23.8768 40.6268 23.9603 40.1595 23.9324 40.038ZM35.8566 41.3558C36.1625 39.7296 36.0605 39.2342 35.328 38.8791C34.5214 38.4866 33.4365 38.7576 32.7596 39.5146C32.3238 40.0006 32.1755 40.2903 31.9437 41.1315C31.8068 41.6321 31.6979 41.9033 31.7883 42.0488C31.9122 42.2483 32.4104 42.2116 33.7239 42.2062L35.6989 42.1969L35.8566 41.3558ZM29.6905 40.7483C29.7554 39.6828 29.6349 39.3557 29.0693 39.066C28.6706 38.8604 27.7248 38.8137 27.3075 38.9819C26.4823 39.3183 25.7684 40.4772 25.5922 41.7483L25.5273 42.2436H29.5143L29.57 41.9352C29.6071 41.7763 29.6627 41.2343 29.6905 40.7483ZM38.7588 44.2343C38.7959 43.9352 38.9257 43.3371 39.0462 42.9072C39.176 42.4773 39.2595 42.1128 39.2502 42.1034C39.1946 42.0474 38.4806 42.3371 38.2581 42.496C37.8872 42.767 37.5256 43.5988 37.4328 44.3932C37.3865 44.7764 37.3587 45.1222 37.3772 45.1502C37.3957 45.1876 37.609 45.1502 37.8501 45.0754C38.3394 44.9253 38.542 44.8675 38.6397 44.7325C38.7124 44.6322 38.7271 44.4893 38.7588 44.2343ZM11.9713 43.8511C12.1289 42.8231 12.1289 42.7763 11.962 42.4679C11.8229 42.2062 11.7394 42.1502 11.4891 42.1502C11.2666 42.1502 11.1367 42.2156 11.044 42.3558C10.8957 42.5894 10.5526 44.1876 10.4599 45.0567C10.4135 45.5334 10.4321 45.5988 10.599 45.6923C10.7102 45.7483 10.9049 45.7764 11.0348 45.7483C11.0902 45.7364 11.1591 45.7227 11.2293 45.7088C11.3235 45.6901 11.42 45.671 11.4891 45.6549C11.656 45.6175 11.7209 45.5334 11.758 45.2624C11.7858 45.0661 11.8785 44.4306 11.9713 43.8511ZM23.135 45.9726C23.135 44.6081 22.7178 43.8979 21.7535 43.6081C21.1508 43.4306 20.7984 43.4212 20.3348 43.5894C19.7785 43.795 19.5374 43.9913 19.2407 44.5147C18.9903 44.9539 18.9625 45.0848 18.9625 45.8138V46.6362H23.135V45.9726ZM29.6071 45.6269C29.5792 44.496 29.4402 44.1689 28.8189 43.739C28.5964 43.5801 28.346 43.5147 27.8824 43.496C26.3618 43.4119 25.4624 44.253 25.3789 45.8605L25.3326 46.6362H29.6442L29.6071 45.6269ZM35.3373 45.8138C35.4671 44.2904 35.3744 43.982 34.7161 43.6362C34.2154 43.3838 33.5756 43.4025 33.0007 43.6922C32.2218 44.0848 31.8509 44.8231 31.8509 45.982V46.6362H35.2631L35.3373 45.8138ZM16.7372 45.9072C16.7372 44.8979 16.5425 44.281 16.1252 43.9539C15.6801 43.6175 14.892 43.5521 14.4191 43.8137C13.9092 44.0941 13.5846 44.8044 13.5846 45.6549C13.5846 46.1049 13.5627 46.3496 13.6732 46.4822C13.822 46.6608 14.2109 46.6362 15.2165 46.6362H16.7372V45.9072ZM38.6197 49.2718L38.564 48.0474C38.4991 46.8699 38.4899 46.8231 38.2952 46.8231C38.1839 46.8231 37.9521 46.9166 37.7852 47.0287C37.3587 47.3185 37.201 47.8231 37.2567 48.6456C37.3123 49.3839 37.4977 50.2064 37.5997 50.169C37.6368 50.1503 37.8779 49.9447 38.1468 49.7017L38.6197 49.2718ZM11.7116 49.3278C11.7394 48.4493 11.6282 47.8605 11.3964 47.6175C11.1553 47.3839 10.6639 47.44 10.4321 47.7297C10.3837 47.7932 10.3464 47.8366 10.3195 47.8858C10.2278 48.0538 10.2587 48.2897 10.395 49.6269L10.4599 50.197L11.6838 50.1409L11.7116 49.3278ZM23.0423 49.5615C23.0423 48.8232 22.8476 48.4587 22.3098 48.1502C22.078 48.0194 21.7257 47.9259 21.3548 47.8979C20.0103 47.7951 19.148 48.5147 19.148 49.711V50.1877L21.0951 50.1783H23.0423V49.5615ZM29.1991 48.5054C28.9673 48.2437 28.7169 48.0942 28.3924 47.9914C27.7897 47.8138 27.2797 47.8231 26.7327 48.0194C25.8982 48.3185 25.4531 48.954 25.4531 49.8419V50.1877L27.493 50.169L29.5329 50.1409V49.5148C29.5329 48.9166 29.5143 48.8605 29.1991 48.5054ZM34.9015 48.3746C34.7439 48.1876 34.4657 48.0007 34.2803 47.9446C33.659 47.7764 33.0285 47.8979 32.5185 48.2811C32.1477 48.5708 31.9808 48.8886 31.9159 49.4867C31.8817 49.7589 31.8563 49.9295 31.9271 50.0336C32.0484 50.2118 32.4517 50.195 33.5756 50.1596C34.1822 50.1399 34.7154 50.1202 34.9847 50.1102C35.0983 50.106 35.1649 50.1035 35.1704 50.1035C35.1797 50.0942 35.189 49.7764 35.189 49.3933C35.189 48.7484 35.1704 48.6736 34.9015 48.3746ZM16.7186 49.7204C16.765 49.1316 16.6074 48.6923 16.2272 48.3185C15.9398 48.0381 15.8378 48.0007 15.3185 47.9633C14.8271 47.9353 14.6973 47.9633 14.4099 48.1689C13.9648 48.4774 13.7701 48.9166 13.7701 49.6176V50.197L16.6908 50.1409L16.7186 49.7204ZM41.5868 53.4681C41.5868 53.3279 40.9656 52.8232 40.6688 52.7204C40.3258 52.6083 39.2409 52.6083 37.5997 52.7204C33.1861 53.0195 19.9361 53.0849 13.0468 52.8419C8.33653 52.6737 8.2809 52.6737 7.69674 53.1877C7.0755 53.7391 7.05696 54.6644 7.64111 55.169C7.87292 55.3653 8.03055 55.4027 8.95777 55.4494C11.4149 55.5896 19.5652 55.7111 24.2477 55.6831C28.9673 55.655 29.3289 55.6457 29.6534 55.4775C30.0521 55.2812 30.3396 54.9074 30.423 54.5055L30.4787 54.2251L31.8417 54.169C37.2288 53.926 41.5868 53.6176 41.5868 53.4681ZM43.9976 58.1878C43.9976 58.0476 43.4413 57.6738 43.0611 57.571C42.7551 57.4775 41.7444 57.4401 41.6703 57.5149C41.6517 57.5336 40.0105 57.627 38.017 57.7205C33.1769 57.9541 15.9027 57.9822 11.1738 57.7579C9.5141 57.6831 7.63184 57.6177 6.99205 57.6177C5.87011 57.6177 5.81448 57.627 5.43432 57.8794C5.19324 58.0382 4.97998 58.2812 4.89653 58.4775C4.72035 58.9168 4.8038 59.4214 5.08197 59.5243C5.29523 59.599 7.22386 59.7299 11.5447 59.9635C15.2814 60.1598 25.6664 60.2439 30.0429 60.1037C35.4486 59.9261 35.7082 59.8887 36.0884 59.1878C36.1255 59.1166 36.1541 59.0601 36.1945 59.014C36.3554 58.83 36.7031 58.812 38.527 58.6925C41.9206 58.4775 43.9976 58.2812 43.9976 58.1878ZM24.155 62.0103C14.2986 62.0103 11.7116 61.9542 6.86224 61.6364C4.85017 61.4962 4.00639 61.4776 3.58914 61.5617C3.22752 61.6364 2.57846 62.3374 2.50429 62.7299C2.40229 63.2813 2.45793 63.328 3.26461 63.3935C4.54418 63.5056 8.2809 63.7393 10.3857 63.8421C13.2786 63.9823 30.3303 64.057 33.2881 63.9449C35.9771 63.8327 36.246 63.7767 36.5983 63.2252C36.7467 63.0009 36.8858 62.8981 37.0434 62.8981C37.7852 62.8981 45.6759 62.3561 46.1302 62.2813L46.4547 62.2252L46.1024 61.9168C45.5553 61.4402 45.2401 61.4121 42.0968 61.6364C37.8223 61.9355 34.0577 62.0103 24.155 62.0103Z" fill="#556979"/>
</svg>
