<svg width="64" height="64" viewBox="0 0 64 64" fill="none" xmlns="http://www.w3.org/2000/svg">
<rect width="64" height="64" fill="#C5C8BF"/>
<g filter="url(#filter0_d_0_1)">
<circle cx="32" cy="29" r="28" stroke="white" stroke-width="2" shape-rendering="crispEdges"/>
</g>
<path d="M30.3283 18.5C25.7386 18.5 22 22.2386 22 26.8283C22 31.418 25.7386 35.1566 30.3283 35.1566C32.3242 35.1566 34.1571 34.4479 35.5937 33.2714L40.5663 38.2439C40.643 38.3239 40.7349 38.3877 40.8366 38.4316C40.9383 38.4756 41.0478 38.4988 41.1586 38.5C41.2694 38.5011 41.3793 38.4801 41.4819 38.4382C41.5845 38.3963 41.6777 38.3344 41.756 38.256C41.8344 38.1777 41.8963 38.0845 41.9382 37.9819C41.9801 37.8793 42.0011 37.7694 42 37.6586C41.9988 37.5478 41.9756 37.4383 41.9316 37.3366C41.8877 37.2349 41.8239 37.143 41.7439 37.0663L36.7714 32.0937C37.9479 30.6571 38.6566 28.8242 38.6566 26.8283C38.6566 22.2386 34.918 18.5 30.3283 18.5ZM30.3283 20.1657C34.0178 20.1657 36.9909 23.1388 36.9909 26.8283C36.9909 30.5178 34.0178 33.4909 30.3283 33.4909C26.6388 33.4909 23.6657 30.5178 23.6657 26.8283C23.6657 23.1388 26.6388 20.1657 30.3283 20.1657Z" fill="white"/>
<defs>
<filter id="filter0_d_0_1" x="0.0114944" y="0" width="63.977" height="63.977" filterUnits="userSpaceOnUse" color-interpolation-filters="sRGB">
<feFlood flood-opacity="0" result="BackgroundImageFix"/>
<feColorMatrix in="SourceAlpha" type="matrix" values="0 0 0 0 0 0 0 0 0 0 0 0 0 0 0 0 0 0 127 0" result="hardAlpha"/>
<feOffset dy="2.98851"/>
<feGaussianBlur stdDeviation="1.49425"/>
<feComposite in2="hardAlpha" operator="out"/>
<feColorMatrix type="matrix" values="0 0 0 0 0 0 0 0 0 0 0 0 0 0 0 0 0 0 0.25 0"/>
<feBlend mode="normal" in2="BackgroundImageFix" result="effect1_dropShadow_0_1"/>
<feBlend mode="normal" in="SourceGraphic" in2="effect1_dropShadow_0_1" result="shape"/>
</filter>
</defs>
</svg>
