<svg width="94" height="94" viewBox="0 0 94 94" fill="none" xmlns="http://www.w3.org/2000/svg">
<g style="mix-blend-mode:plus-lighter" filter="url(#filter0_df_34_3573)">
<circle cx="47" cy="47" r="29" stroke="#00B0FF" stroke-linecap="round" shape-rendering="crispEdges"/>
</g>
<g filter="url(#filter1_d_34_3573)">
<circle cx="47" cy="47" r="29" stroke="white" stroke-linecap="round" shape-rendering="crispEdges"/>
</g>
<g style="mix-blend-mode:plus-lighter" filter="url(#filter2_f_34_3573)">
<circle cx="47" cy="47" r="21" fill="#49A9E1" fill-opacity="0.5"/>
</g>
<path d="M45.5906 37.5852C44.9625 37.5852 44.4533 38.0944 44.4533 38.7225C44.4533 39.3506 44.9625 39.8598 45.5906 39.8598H52.4141C53.0422 39.8598 53.5513 39.3506 53.5513 38.7225C53.5513 38.0944 53.0422 37.5852 52.4141 37.5852H45.5906Z" stroke="white" stroke-width="0.8"/>
<path d="M44.4533 46.686C44.4533 46.0579 44.9625 45.5488 45.5906 45.5488H52.4141C53.0422 45.5488 53.5513 46.0579 53.5513 46.686C53.5513 47.3141 53.0422 47.8233 52.4141 47.8233H45.5906C44.9625 47.8233 44.4533 47.3141 44.4533 46.686Z" stroke="white" stroke-width="0.8"/>
<path d="M45.5906 53.5041C44.9625 53.5041 44.4533 54.0132 44.4533 54.6413C44.4533 55.2694 44.9625 55.7786 45.5906 55.7786H52.4141C53.0422 55.7786 53.5513 55.2694 53.5513 54.6413C53.5513 54.0132 53.0422 53.5041 52.4141 53.5041H45.5906Z" stroke="white" stroke-width="0.8"/>
<path fill-rule="evenodd" clip-rule="evenodd" d="M37.6291 30.7617H58.0997C58.7024 30.7617 59.281 31.0019 59.7075 31.4284C60.1339 31.8549 60.3742 32.4335 60.3742 33.0362V60.3303C60.3742 60.9331 60.134 61.5117 59.7075 61.9382C59.281 62.3646 58.7024 62.6049 58.0997 62.6049H37.6291C37.0263 62.6049 36.4477 62.3646 36.0213 61.9382C35.5948 61.5117 35.3546 60.9331 35.3546 60.3303V55.7813H34.2173C33.5892 55.7813 33.0801 55.2722 33.0801 54.6441C33.0801 54.016 33.5892 53.5068 34.2173 53.5068H35.3546V47.8205H34.2173C33.5892 47.8205 33.0801 47.3114 33.0801 46.6833C33.0801 46.0552 33.5892 45.546 34.2173 45.546H35.3546V39.8598H34.2173C33.5892 39.8598 33.0801 39.3506 33.0801 38.7225C33.0801 38.0944 33.5892 37.5852 34.2173 37.5852H35.3546V33.0362C35.3546 31.7796 36.3724 30.7617 37.6291 30.7617ZM37.6291 60.3303H58.0997V33.0362H37.6291V37.5852H38.7664C39.3944 37.5852 39.9036 38.0944 39.9036 38.7225C39.9036 39.3506 39.3944 39.8598 38.7664 39.8598H37.6291V45.546H38.7664C39.3944 45.546 39.9036 46.0552 39.9036 46.6833C39.9036 47.3114 39.3944 47.8205 38.7664 47.8205H37.6291V53.5068H38.7664C39.3944 53.5068 39.9036 54.016 39.9036 54.6441C39.9036 55.2722 39.3944 55.7813 38.7664 55.7813H37.6291V60.3303Z" stroke="white" stroke-width="0.8"/>
<defs>
<filter id="filter0_df_34_3573" x="7.5" y="7.5" width="79" height="79" filterUnits="userSpaceOnUse" color-interpolation-filters="sRGB">
<feFlood flood-opacity="0" result="BackgroundImageFix"/>
<feColorMatrix in="SourceAlpha" type="matrix" values="0 0 0 0 0 0 0 0 0 0 0 0 0 0 0 0 0 0 127 0" result="hardAlpha"/>
<feOffset/>
<feGaussianBlur stdDeviation="5"/>
<feComposite in2="hardAlpha" operator="out"/>
<feColorMatrix type="matrix" values="0 0 0 0 0.329412 0 0 0 0 0.690196 0 0 0 0 0.85098 0 0 0 1 0"/>
<feBlend mode="plus-lighter" in2="BackgroundImageFix" result="effect1_dropShadow_34_3573"/>
<feBlend mode="normal" in="SourceGraphic" in2="effect1_dropShadow_34_3573" result="shape"/>
<feGaussianBlur stdDeviation="1.25" result="effect2_foregroundBlur_34_3573"/>
</filter>
<filter id="filter1_d_34_3573" x="12.2" y="12.2" width="69.6" height="69.6" filterUnits="userSpaceOnUse" color-interpolation-filters="sRGB">
<feFlood flood-opacity="0" result="BackgroundImageFix"/>
<feColorMatrix in="SourceAlpha" type="matrix" values="0 0 0 0 0 0 0 0 0 0 0 0 0 0 0 0 0 0 127 0" result="hardAlpha"/>
<feOffset/>
<feGaussianBlur stdDeviation="2.65"/>
<feComposite in2="hardAlpha" operator="out"/>
<feColorMatrix type="matrix" values="0 0 0 0 1 0 0 0 0 1 0 0 0 0 1 0 0 0 1 0"/>
<feBlend mode="normal" in2="BackgroundImageFix" result="effect1_dropShadow_34_3573"/>
<feBlend mode="normal" in="SourceGraphic" in2="effect1_dropShadow_34_3573" result="shape"/>
</filter>
<filter id="filter2_f_34_3573" x="0.200001" y="0.200001" width="93.6" height="93.6" filterUnits="userSpaceOnUse" color-interpolation-filters="sRGB">
<feFlood flood-opacity="0" result="BackgroundImageFix"/>
<feBlend mode="normal" in="SourceGraphic" in2="BackgroundImageFix" result="shape"/>
<feGaussianBlur stdDeviation="12.9" result="effect1_foregroundBlur_34_3573"/>
</filter>
</defs>
</svg>
