<svg width="45" height="29" viewBox="0 0 45 29" fill="none" xmlns="http://www.w3.org/2000/svg">
<path d="M2.65515 24.7432C4.04687 26.3482 5.87691 27.5753 7.94221 28.2914C9.29926 28.7605 10.7281 29 12.1595 29C12.8999 29 13.6379 28.9358 14.3684 28.8074C16.2529 28.479 18.0359 27.7333 19.5663 26.6395L22.1467 27.5333C22.1541 27.5358 22.1615 27.5383 22.1665 27.5407C22.1714 27.5407 22.1764 27.5432 22.1814 27.5457C22.2036 27.5506 22.2259 27.558 22.2482 27.563C22.2532 27.5654 22.2581 27.5654 22.2631 27.5654C22.2854 27.5728 22.3076 27.5753 22.3299 27.5802C22.3349 27.5802 22.3374 27.5802 22.3423 27.5827C22.3671 27.5852 22.3894 27.5877 22.4141 27.5901C22.4166 27.5901 22.4191 27.5901 22.4216 27.5901C22.4463 27.5926 22.4736 27.5926 22.4983 27.5926C22.5256 27.5926 22.5503 27.5926 22.5776 27.5901C22.58 27.5901 22.5825 27.5901 22.5825 27.5901C22.6073 27.5877 22.6321 27.5852 22.6568 27.5827C22.6593 27.5802 22.6642 27.5802 22.6667 27.5802C22.6915 27.5753 22.7138 27.5728 22.7361 27.5654C22.741 27.5654 22.746 27.5654 22.7509 27.563C22.7732 27.558 22.7955 27.5506 22.8178 27.5457C22.8203 27.5432 22.8252 27.5407 22.8302 27.5407C22.8376 27.5383 22.845 27.5358 22.85 27.5333L25.4328 26.6395C26.9608 27.7333 28.7462 28.479 30.6307 28.8074C31.3613 28.9358 32.0992 29 32.8397 29C34.2685 29 35.6999 28.7605 37.0569 28.2914C39.1222 27.5753 40.9498 26.3482 42.3415 24.7432C43.6986 23.1778 44.6123 21.2963 44.9813 19.2988C45.0556 18.9111 44.9046 18.5136 44.595 18.2667C42.9656 16.9778 41.0043 16.1037 38.9216 15.7383C36.7746 15.363 34.5533 15.5432 32.493 16.2568C30.4277 16.9728 28.6001 18.1975 27.2084 19.8049C25.9925 21.2049 25.1332 22.8642 24.7023 24.6321L23.6177 25.0074V20.1556C25.2149 19.1679 26.5596 17.837 27.5303 16.2765C28.6496 14.4741 29.244 12.4099 29.244 10.3062C29.244 8.20247 28.6521 6.1358 27.5303 4.3358C26.4481 2.59506 24.9029 1.14074 23.0629 0.133333C22.741 -0.0444444 22.3522 -0.0444444 22.0303 0.133333C20.1903 1.14074 18.6451 2.59506 17.5629 4.3358C16.4411 6.1358 15.8493 8.20247 15.8493 10.3062C15.8493 12.4099 16.4411 14.4741 17.5629 16.2765C18.5337 17.837 19.8783 19.1679 21.4756 20.1556V25.0395L20.2993 24.6321C19.8659 22.8642 19.0066 21.2049 17.7907 19.8025C16.399 18.1975 14.5715 16.9704 12.5062 16.2568C10.4458 15.5432 8.22452 15.363 6.07998 15.7383C3.99487 16.1037 2.03358 16.9778 0.40413 18.2667C0.0945832 18.5136 -0.0539986 18.9086 0.0178161 19.2988C0.386796 21.2963 1.30058 23.1778 2.65515 24.7432ZM33.1963 18.2741C36.4032 17.1654 39.9964 17.6568 42.7328 19.5481C41.928 22.6296 39.5358 25.1704 36.3536 26.2716C33.1492 27.3827 29.556 26.8889 26.8171 25C27.6244 21.9185 30.0166 19.3753 33.1963 18.2741ZM17.9913 10.3062C17.9913 7.09136 19.7223 4.07901 22.5454 2.30864C25.3684 4.07901 27.0994 7.09136 27.0994 10.3062C27.0994 13.5185 25.3684 16.5333 22.5454 18.3037C19.7223 16.5333 17.9913 13.5185 17.9913 10.3062ZM11.8029 18.2741C14.9825 19.3753 17.3747 21.9185 18.1795 25C15.4431 26.8889 11.8499 27.3827 8.6455 26.2716C5.46336 25.1704 3.07118 22.6296 2.26636 19.5481C5.00275 17.6568 8.59597 17.1654 11.8029 18.2741Z" fill="white"/>
</svg>
