<svg width="277" height="453" viewBox="0 0 277 453" fill="none" xmlns="http://www.w3.org/2000/svg">
<g style="mix-blend-mode:plus-lighter" filter="url(#filter0_f_97_1978)">
<path d="M129.422 446.5L7 356V9.5L269.698 6.5V356L151.814 446.5H129.422Z" fill="url(#paint0_linear_97_1978)"/>
</g>
<g style="mix-blend-mode:plus-lighter" opacity="0.8" filter="url(#filter1_f_97_1978)">
<path d="M73.6301 349.5L140.437 440L88.3685 349.5L187.691 350.5L141.53 440L202.521 350.5H241.844L149.176 443H133.337L34.3074 349.5H73.6301Z" fill="url(#paint1_linear_97_1978)"/>
<path d="M140.437 440L73.6301 349.5H34.3074L133.337 443M140.437 440L133.337 443M140.437 440H141.53M140.437 440L88.3685 349.5L187.691 350.5L141.53 440M133.337 443H149.176M141.53 440L202.521 350.5H241.844L149.176 443M141.53 440L149.176 443" stroke="url(#paint2_linear_97_1978)"/>
</g>
<defs>
<filter id="filter0_f_97_1978" x="0.5" y="0" width="275.698" height="453" filterUnits="userSpaceOnUse" color-interpolation-filters="sRGB">
<feFlood flood-opacity="0" result="BackgroundImageFix"/>
<feBlend mode="normal" in="SourceGraphic" in2="BackgroundImageFix" result="shape"/>
<feGaussianBlur stdDeviation="3.25" result="effect1_foregroundBlur_97_1978"/>
</filter>
<filter id="filter1_f_97_1978" x="28.0496" y="343.992" width="220.003" height="104.508" filterUnits="userSpaceOnUse" color-interpolation-filters="sRGB">
<feFlood flood-opacity="0" result="BackgroundImageFix"/>
<feBlend mode="normal" in="SourceGraphic" in2="BackgroundImageFix" result="shape"/>
<feGaussianBlur stdDeviation="2.5" result="effect1_foregroundBlur_97_1978"/>
</filter>
<linearGradient id="paint0_linear_97_1978" x1="138" y1="-21" x2="141.876" y2="402.495" gradientUnits="userSpaceOnUse">
<stop offset="0.176464" stop-color="#2383AE" stop-opacity="0"/>
<stop offset="1" stop-color="#2383AE"/>
</linearGradient>
<linearGradient id="paint1_linear_97_1978" x1="141.5" y1="361" x2="141.025" y2="443" gradientUnits="userSpaceOnUse">
<stop stop-color="#2383AE" stop-opacity="0"/>
<stop offset="1" stop-color="#2383AE"/>
</linearGradient>
<linearGradient id="paint2_linear_97_1978" x1="138" y1="443" x2="138.076" y2="349.5" gradientUnits="userSpaceOnUse">
<stop stop-color="white"/>
<stop offset="0.838465" stop-color="white" stop-opacity="0"/>
</linearGradient>
</defs>
</svg>
