<svg width="195" height="163" viewBox="0 0 195 163" fill="none" xmlns="http://www.w3.org/2000/svg">
<g filter="url(#filter0_ddddi_2007_5674)">
<path d="M162.541 29C162.541 35.8378 133.318 52 97.2703 52C61.2225 52 32 35.8378 32 29C32 22.1622 61.2225 6 97.2703 6C133.318 6 162.541 22.1622 162.541 29Z" fill="url(#paint0_linear_2007_5674)"/>
</g>
<g style="mix-blend-mode:plus-lighter" filter="url(#filter1_f_2007_5674)">
<path d="M97.2703 37.7032C121.661 37.7032 159.137 29.7348 162.323 29.0477C162.465 29.017 162.541 28.897 162.541 28.7517C162.541 28.558 162.385 28.408 162.195 28.4432C158.251 29.1713 121.477 35.8384 97.2703 35.8384C73.0634 35.8384 36.2897 29.1713 32.346 28.4432C32.1556 28.408 32 28.558 32 28.7517C32 28.897 32.0755 29.017 32.2175 29.0477C35.4036 29.7348 72.8796 37.7032 97.2703 37.7032Z" fill="#0074E9"/>
<path d="M97.2703 37.7032C121.661 37.7032 159.137 29.7348 162.323 29.0477C162.465 29.017 162.541 28.897 162.541 28.7517C162.541 28.558 162.385 28.408 162.195 28.4432C158.251 29.1713 121.477 35.8384 97.2703 35.8384C73.0634 35.8384 36.2897 29.1713 32.346 28.4432C32.1556 28.408 32 28.558 32 28.7517C32 28.897 32.0755 29.017 32.2175 29.0477C35.4036 29.7348 72.8796 37.7032 97.2703 37.7032Z" stroke="#0074E9" stroke-width="2" stroke-linecap="round"/>
</g>
<g filter="url(#filter2_f_2007_5674)">
<path d="M97.2703 37.7032C121.661 37.7032 159.137 29.7348 162.323 29.0477C162.465 29.017 162.541 28.897 162.541 28.7517C162.541 28.558 162.385 28.408 162.195 28.4432C158.251 29.1713 121.477 35.8384 97.2703 35.8384C73.0634 35.8384 36.2897 29.1713 32.346 28.4432C32.1556 28.408 32 28.558 32 28.7517C32 28.897 32.0755 29.017 32.2175 29.0477C35.4036 29.7348 72.8796 37.7032 97.2703 37.7032Z" fill="#0074E9"/>
<path d="M97.2703 37.7032C121.661 37.7032 159.137 29.7348 162.323 29.0477C162.465 29.017 162.541 28.897 162.541 28.7517C162.541 28.558 162.385 28.408 162.195 28.4432C158.251 29.1713 121.477 35.8384 97.2703 35.8384C73.0634 35.8384 36.2897 29.1713 32.346 28.4432C32.1556 28.408 32 28.558 32 28.7517C32 28.897 32.0755 29.017 32.2175 29.0477C35.4036 29.7348 72.8796 37.7032 97.2703 37.7032Z" stroke="#0074E9" stroke-width="2" stroke-linecap="round"/>
</g>
<g filter="url(#filter3_f_2007_5674)">
<path d="M97.2703 37.7032C121.661 37.7032 159.137 29.7348 162.323 29.0477C162.465 29.017 162.541 28.897 162.541 28.7517C162.541 28.558 162.385 28.408 162.195 28.4432C158.251 29.1713 121.477 35.8384 97.2703 35.8384C73.0634 35.8384 36.2897 29.1713 32.346 28.4432C32.1556 28.408 32 28.558 32 28.7517C32 28.897 32.0755 29.017 32.2175 29.0477C35.4036 29.7348 72.8796 37.7032 97.2703 37.7032Z" fill="white"/>
<path d="M97.2703 37.7032C121.661 37.7032 159.137 29.7348 162.323 29.0477C162.465 29.017 162.541 28.897 162.541 28.7517C162.541 28.558 162.385 28.408 162.195 28.4432C158.251 29.1713 121.477 35.8384 97.2703 35.8384C73.0634 35.8384 36.2897 29.1713 32.346 28.4432C32.1556 28.408 32 28.558 32 28.7517C32 28.897 32.0755 29.017 32.2175 29.0477C35.4036 29.7348 72.8796 37.7032 97.2703 37.7032Z" stroke="white" stroke-width="2" stroke-linecap="round"/>
</g>
<g filter="url(#filter4_f_2007_5674)">
<path d="M97.2703 37.7032C121.661 37.7032 159.137 29.7348 162.323 29.0477C162.465 29.017 162.541 28.897 162.541 28.7517C162.541 28.558 162.385 28.408 162.195 28.4432C158.251 29.1713 121.477 35.8384 97.2703 35.8384C73.0634 35.8384 36.2897 29.1713 32.346 28.4432C32.1556 28.408 32 28.558 32 28.7517C32 28.897 32.0755 29.017 32.2175 29.0477C35.4036 29.7348 72.8796 37.7032 97.2703 37.7032Z" fill="white"/>
<path d="M97.2703 37.7032C121.661 37.7032 159.137 29.7348 162.323 29.0477C162.465 29.017 162.541 28.897 162.541 28.7517C162.541 28.558 162.385 28.408 162.195 28.4432C158.251 29.1713 121.477 35.8384 97.2703 35.8384C73.0634 35.8384 36.2897 29.1713 32.346 28.4432C32.1556 28.408 32 28.558 32 28.7517C32 28.897 32.0755 29.017 32.2175 29.0477C35.4036 29.7348 72.8796 37.7032 97.2703 37.7032Z" stroke="white" stroke-width="2" stroke-linecap="round"/>
</g>
<defs>
<filter id="filter0_ddddi_2007_5674" x="0.411215" y="0.330218" width="193.718" height="162.636" filterUnits="userSpaceOnUse" color-interpolation-filters="sRGB">
<feFlood flood-opacity="0" result="BackgroundImageFix"/>
<feColorMatrix in="SourceAlpha" type="matrix" values="0 0 0 0 0 0 0 0 0 0 0 0 0 0 0 0 0 0 127 0" result="hardAlpha"/>
<feOffset dy="4.85981"/>
<feGaussianBlur stdDeviation="5.2648"/>
<feColorMatrix type="matrix" values="0 0 0 0 0.0235294 0 0 0 0 0.0666667 0 0 0 0 0.0980392 0 0 0 0.22 0"/>
<feBlend mode="normal" in2="BackgroundImageFix" result="effect1_dropShadow_2007_5674"/>
<feColorMatrix in="SourceAlpha" type="matrix" values="0 0 0 0 0 0 0 0 0 0 0 0 0 0 0 0 0 0 127 0" result="hardAlpha"/>
<feOffset dy="19.4393"/>
<feGaussianBlur stdDeviation="9.71963"/>
<feColorMatrix type="matrix" values="0 0 0 0 0.0235294 0 0 0 0 0.0666667 0 0 0 0 0.0980392 0 0 0 0.19 0"/>
<feBlend mode="normal" in2="effect1_dropShadow_2007_5674" result="effect2_dropShadow_2007_5674"/>
<feColorMatrix in="SourceAlpha" type="matrix" values="0 0 0 0 0 0 0 0 0 0 0 0 0 0 0 0 0 0 127 0" result="hardAlpha"/>
<feOffset dy="44.5483"/>
<feGaussianBlur stdDeviation="13.3645"/>
<feColorMatrix type="matrix" values="0 0 0 0 0.0235294 0 0 0 0 0.0666667 0 0 0 0 0.0980392 0 0 0 0.11 0"/>
<feBlend mode="normal" in2="effect2_dropShadow_2007_5674" result="effect3_dropShadow_2007_5674"/>
<feColorMatrix in="SourceAlpha" type="matrix" values="0 0 0 0 0 0 0 0 0 0 0 0 0 0 0 0 0 0 127 0" result="hardAlpha"/>
<feOffset dy="79.3769"/>
<feGaussianBlur stdDeviation="15.7944"/>
<feColorMatrix type="matrix" values="0 0 0 0 0.0235294 0 0 0 0 0.0666667 0 0 0 0 0.0980392 0 0 0 0.03 0"/>
<feBlend mode="normal" in2="effect3_dropShadow_2007_5674" result="effect4_dropShadow_2007_5674"/>
<feBlend mode="normal" in="SourceGraphic" in2="effect4_dropShadow_2007_5674" result="shape"/>
<feColorMatrix in="SourceAlpha" type="matrix" values="0 0 0 0 0 0 0 0 0 0 0 0 0 0 0 0 0 0 127 0" result="hardAlpha"/>
<feOffset/>
<feGaussianBlur stdDeviation="5.1028"/>
<feComposite in2="hardAlpha" operator="arithmetic" k2="-1" k3="1"/>
<feColorMatrix type="matrix" values="0 0 0 0 0.137511 0 0 0 0 0.42211 0 0 0 0 0.736667 0 0 0 1 0"/>
<feBlend mode="plus-lighter" in2="shape" result="effect5_innerShadow_2007_5674"/>
</filter>
<filter id="filter1_f_2007_5674" x="20.2303" y="16.6678" width="154.08" height="32.8051" filterUnits="userSpaceOnUse" color-interpolation-filters="sRGB">
<feFlood flood-opacity="0" result="BackgroundImageFix"/>
<feBlend mode="normal" in="SourceGraphic" in2="BackgroundImageFix" result="shape"/>
<feGaussianBlur stdDeviation="5.38487" result="effect1_foregroundBlur_2007_5674"/>
</filter>
<filter id="filter2_f_2007_5674" x="28" y="24.4375" width="138.541" height="17.2656" filterUnits="userSpaceOnUse" color-interpolation-filters="sRGB">
<feFlood flood-opacity="0" result="BackgroundImageFix"/>
<feBlend mode="normal" in="SourceGraphic" in2="BackgroundImageFix" result="shape"/>
<feGaussianBlur stdDeviation="1.5" result="effect1_foregroundBlur_2007_5674"/>
</filter>
<filter id="filter3_f_2007_5674" x="25.6816" y="22.1191" width="143.177" height="21.9024" filterUnits="userSpaceOnUse" color-interpolation-filters="sRGB">
<feFlood flood-opacity="0" result="BackgroundImageFix"/>
<feBlend mode="normal" in="SourceGraphic" in2="BackgroundImageFix" result="shape"/>
<feGaussianBlur stdDeviation="2.6592" result="effect1_foregroundBlur_2007_5674"/>
</filter>
<filter id="filter4_f_2007_5674" x="29.6704" y="26.1079" width="135.2" height="13.9248" filterUnits="userSpaceOnUse" color-interpolation-filters="sRGB">
<feFlood flood-opacity="0" result="BackgroundImageFix"/>
<feBlend mode="normal" in="SourceGraphic" in2="BackgroundImageFix" result="shape"/>
<feGaussianBlur stdDeviation="0.664799" result="effect1_foregroundBlur_2007_5674"/>
</filter>
<linearGradient id="paint0_linear_2007_5674" x1="97.2703" y1="52" x2="97.2703" y2="6" gradientUnits="userSpaceOnUse">
<stop stop-color="#081C2C"/>
<stop offset="1" stop-color="#1F70B0"/>
</linearGradient>
</defs>
</svg>
