<svg width="218" height="183" viewBox="0 0 218 183" fill="none" xmlns="http://www.w3.org/2000/svg">
<g filter="url(#filter0_ddddi_97_1972)">
<path d="M182.149 32.75C182.149 40.4054 149.432 58.5 109.074 58.5C68.7165 58.5 36 40.4054 36 32.75C36 25.0946 68.7165 7 109.074 7C149.432 7 182.149 25.0946 182.149 32.75Z" fill="#0D2F4A"/>
</g>
<g style="mix-blend-mode:plus-lighter" filter="url(#filter1_f_97_1972)">
<path d="M109.074 41.3743C136.359 41.3743 178.269 33.4911 181.896 32.799C182.06 32.7678 182.149 32.6303 182.149 32.4637C182.149 32.2493 181.98 32.082 181.769 32.1158C177.393 32.8155 136.191 39.2865 109.074 39.2865C81.9578 39.2865 40.7559 32.8155 36.3799 32.1158C36.1682 32.082 36 32.2493 36 32.4637C36 32.6303 36.0887 32.7678 36.2523 32.799C39.8792 33.4911 81.7897 41.3743 109.074 41.3743Z" stroke="url(#paint0_linear_97_1972)" stroke-width="2.23913" stroke-linecap="round"/>
</g>
<g filter="url(#filter2_f_97_1972)">
<path d="M109.074 41.3743C136.359 41.3743 178.269 33.4911 181.896 32.799C182.06 32.7678 182.149 32.6303 182.149 32.4637C182.149 32.2493 181.98 32.082 181.769 32.1158C177.393 32.8155 136.191 39.2865 109.074 39.2865C81.9578 39.2865 40.7559 32.8155 36.3799 32.1158C36.1682 32.082 36 32.2493 36 32.4637C36 32.6303 36.0887 32.7678 36.2523 32.799C39.8792 33.4911 81.7897 41.3743 109.074 41.3743Z" stroke="url(#paint1_linear_97_1972)" stroke-width="2.23913" stroke-linecap="round"/>
</g>
<defs>
<filter id="filter0_ddddi_97_1972" x="0.634293" y="0.65231" width="216.88" height="182.081" filterUnits="userSpaceOnUse" color-interpolation-filters="sRGB">
<feFlood flood-opacity="0" result="BackgroundImageFix"/>
<feColorMatrix in="SourceAlpha" type="matrix" values="0 0 0 0 0 0 0 0 0 0 0 0 0 0 0 0 0 0 127 0" result="hardAlpha"/>
<feOffset dy="5.44088"/>
<feGaussianBlur stdDeviation="5.89428"/>
<feColorMatrix type="matrix" values="0 0 0 0 0.0235294 0 0 0 0 0.0666667 0 0 0 0 0.0980392 0 0 0 0.22 0"/>
<feBlend mode="normal" in2="BackgroundImageFix" result="effect1_dropShadow_97_1972"/>
<feColorMatrix in="SourceAlpha" type="matrix" values="0 0 0 0 0 0 0 0 0 0 0 0 0 0 0 0 0 0 127 0" result="hardAlpha"/>
<feOffset dy="21.7635"/>
<feGaussianBlur stdDeviation="10.8818"/>
<feColorMatrix type="matrix" values="0 0 0 0 0.0235294 0 0 0 0 0.0666667 0 0 0 0 0.0980392 0 0 0 0.19 0"/>
<feBlend mode="normal" in2="effect1_dropShadow_97_1972" result="effect2_dropShadow_97_1972"/>
<feColorMatrix in="SourceAlpha" type="matrix" values="0 0 0 0 0 0 0 0 0 0 0 0 0 0 0 0 0 0 127 0" result="hardAlpha"/>
<feOffset dy="49.8747"/>
<feGaussianBlur stdDeviation="14.9624"/>
<feColorMatrix type="matrix" values="0 0 0 0 0.0235294 0 0 0 0 0.0666667 0 0 0 0 0.0980392 0 0 0 0.11 0"/>
<feBlend mode="normal" in2="effect2_dropShadow_97_1972" result="effect3_dropShadow_97_1972"/>
<feColorMatrix in="SourceAlpha" type="matrix" values="0 0 0 0 0 0 0 0 0 0 0 0 0 0 0 0 0 0 127 0" result="hardAlpha"/>
<feOffset dy="88.8677"/>
<feGaussianBlur stdDeviation="17.6829"/>
<feColorMatrix type="matrix" values="0 0 0 0 0.0235294 0 0 0 0 0.0666667 0 0 0 0 0.0980392 0 0 0 0.03 0"/>
<feBlend mode="normal" in2="effect3_dropShadow_97_1972" result="effect4_dropShadow_97_1972"/>
<feBlend mode="normal" in="SourceGraphic" in2="effect4_dropShadow_97_1972" result="shape"/>
<feColorMatrix in="SourceAlpha" type="matrix" values="0 0 0 0 0 0 0 0 0 0 0 0 0 0 0 0 0 0 127 0" result="hardAlpha"/>
<feOffset/>
<feGaussianBlur stdDeviation="5.71292"/>
<feComposite in2="hardAlpha" operator="arithmetic" k2="-1" k3="1"/>
<feColorMatrix type="matrix" values="0 0 0 0 0.137511 0 0 0 0 0.42211 0 0 0 0 0.736667 0 0 0 1 0"/>
<feBlend mode="normal" in2="shape" result="effect5_innerShadow_97_1972"/>
</filter>
<filter id="filter1_f_97_1972" x="32.0815" y="28.1894" width="153.986" height="17.1017" filterUnits="userSpaceOnUse" color-interpolation-filters="sRGB">
<feFlood flood-opacity="0" result="BackgroundImageFix"/>
<feBlend mode="normal" in="SourceGraphic" in2="BackgroundImageFix" result="shape"/>
<feGaussianBlur stdDeviation="1.39946" result="effect1_foregroundBlur_97_1972"/>
</filter>
<filter id="filter2_f_97_1972" x="33.201" y="29.3089" width="151.747" height="14.8626" filterUnits="userSpaceOnUse" color-interpolation-filters="sRGB">
<feFlood flood-opacity="0" result="BackgroundImageFix"/>
<feBlend mode="normal" in="SourceGraphic" in2="BackgroundImageFix" result="shape"/>
<feGaussianBlur stdDeviation="0.839674" result="effect1_foregroundBlur_97_1972"/>
</filter>
<linearGradient id="paint0_linear_97_1972" x1="50.5544" y1="28.2718" x2="61.9067" y2="66.9263" gradientUnits="userSpaceOnUse">
<stop stop-color="#00B0FF" stop-opacity="0"/>
<stop offset="0.34" stop-color="#00B0FF"/>
<stop offset="0.747999" stop-color="#00B0FF"/>
<stop offset="1" stop-color="#00B0FF" stop-opacity="0"/>
</linearGradient>
<linearGradient id="paint1_linear_97_1972" x1="75.7445" y1="29.9511" x2="85.922" y2="63.2901" gradientUnits="userSpaceOnUse">
<stop stop-color="white" stop-opacity="0"/>
<stop offset="0.338752" stop-color="white"/>
<stop offset="0.685154" stop-color="white" stop-opacity="0.946332"/>
<stop offset="0.736319" stop-color="white" stop-opacity="0.893396"/>
<stop offset="0.997104" stop-color="white" stop-opacity="0"/>
</linearGradient>
</defs>
</svg>
