<svg width="85" height="88" viewBox="0 0 85 88" fill="none" xmlns="http://www.w3.org/2000/svg">
<mask id="path-1-inside-1_159_4622" fill="white">
<path fill-rule="evenodd" clip-rule="evenodd" d="M68.4933 0H0V68.4935L17.0944 87.5195H84.251V17.4785L68.4933 0Z"/>
</mask>
<path fill-rule="evenodd" clip-rule="evenodd" d="M68.4933 0H0V68.4935L17.0944 87.5195H84.251V17.4785L68.4933 0Z" fill="#0A2031"/>
<path d="M0 0V-1H-1V0H0ZM68.4933 0L69.2361 -0.669598L68.9382 -1H68.4933V0ZM0 68.4935H-1V68.8768L-0.743857 69.1619L0 68.4935ZM17.0944 87.5195L16.3505 88.1879L16.6485 88.5195H17.0944V87.5195ZM84.251 87.5195V88.5195H85.251V87.5195H84.251ZM84.251 17.4785H85.251V17.0943L84.9937 16.8089L84.251 17.4785ZM0 1H68.4933V-1H0V1ZM1 68.4935V0H-1V68.4935H1ZM17.8383 86.8512L0.743857 67.8252L-0.743857 69.1619L16.3505 88.1879L17.8383 86.8512ZM84.251 86.5195H17.0944V88.5195H84.251V86.5195ZM83.251 17.4785V87.5195H85.251V17.4785H83.251ZM84.9937 16.8089L69.2361 -0.669598L67.7506 0.669598L83.5082 18.1481L84.9937 16.8089Z" fill="url(#paint0_linear_159_4622)" mask="url(#path-1-inside-1_159_4622)"/>
<defs>
<linearGradient id="paint0_linear_159_4622" x1="-44.4942" y1="-24.1065" x2="124.163" y2="-11.2529" gradientUnits="userSpaceOnUse">
<stop offset="0.00541382" stop-color="#8EC9CC" stop-opacity="0"/>
<stop offset="0.5" stop-color="#B2FBFF"/>
<stop offset="1" stop-color="#8EC9CC" stop-opacity="0"/>
</linearGradient>
</defs>
</svg>
