<svg xmlns="http://www.w3.org/2000/svg" xmlns:xlink="http://www.w3.org/1999/xlink" width="76" height="77" viewBox="0 0 76 77" fill="none">
  <mask id="path-1-inside-1_59_4624" fill="white">
    <path fill-rule="evenodd" clip-rule="evenodd" d="M62.8633 0H0V60.2609L15.2174 77H76V14.5714L62.8633 0Z"/>
  </mask>
  <path fill-rule="evenodd" clip-rule="evenodd" d="M62.8633 0H0V60.2609L15.2174 77H76V14.5714L62.8633 0Z" fill="url(#pattern0_59_4624)"/>
  <path d="M0 0V-1H-1V0H0ZM62.8633 0L63.606 -0.669598L63.3081 -1H62.8633V0ZM0 60.2609H-1V60.6475L-0.73994 60.9335L0 60.2609ZM15.2174 77L14.4775 77.6727L14.775 78H15.2174V77ZM76 77V78H77V77H76ZM76 14.5714H77V14.1871L76.7427 13.9018L76 14.5714ZM0 1H62.8633V-1H0V1ZM1 60.2609V0H-1V60.2609H1ZM15.9573 76.3273L0.73994 59.5882L-0.73994 60.9335L14.4775 77.6727L15.9573 76.3273ZM76 76H15.2174V78H76V76ZM75 14.5714V77H77V14.5714H75ZM76.7427 13.9018L63.606 -0.669598L62.1205 0.669598L75.2573 15.241L76.7427 13.9018Z" fill="url(#paint0_linear_59_4624)" mask="url(#path-1-inside-1_59_4624)"/>
  <defs>
    <pattern id="pattern0_59_4624" patternContentUnits="objectBoundingBox" width="1" height="1">
      <use xlink:href="#image0_59_4624" transform="matrix(0.0021097 0 0 0.00208231 0 -0.0578562)"/>
    </pattern>
    <linearGradient id="paint0_linear_59_4624" x1="-40.1367" y1="-21.2089" x2="111.958" y2="-9.32426" gradientUnits="userSpaceOnUse">
      <stop offset="0.00541382" stop-color="#8EC9CC" stop-opacity="0.5"/>
      <stop offset="0.5" stop-color="#B2FBFF"/>
      <stop offset="1" stop-color="#8EC9CC" stop-opacity="0"/>
    </linearGradient>
  </defs>
</svg>