<svg xmlns="http://www.w3.org/2000/svg" width="85" height="88" viewBox="0 0 85 88" fill="none">
  <mask id="path-1-inside-1_59_4620" fill="white">
    <path fill-rule="evenodd" clip-rule="evenodd" d="M68.4933 -8.64387e-09L0 0L8.64389e-09 68.4935L17.0944 87.5195L84.251 87.5195L84.251 17.4785L68.4933 -8.64387e-09Z"/>
  </mask>
  <path fill-rule="evenodd" clip-rule="evenodd" d="M68.4933 -8.64387e-09L0 0L8.64389e-09 68.4935L17.0944 87.5195L84.251 87.5195L84.251 17.4785L68.4933 -8.64387e-09Z" fill="url(#paint0_linear_59_4620)"/>
  <path d="M0 0L-1.262e-10 -1L-1 -1L-1 1.262e-10L0 0ZM68.4933 -8.64387e-09L69.2361 -0.669598L68.9382 -1L68.4933 -1L68.4933 -8.64387e-09ZM8.64389e-09 68.4935L-1 68.4935L-1 68.8768L-0.743857 69.1619L8.64389e-09 68.4935ZM17.0944 87.5195L16.3505 88.1879L16.6485 88.5195L17.0944 88.5195L17.0944 87.5195ZM84.251 87.5195L84.251 88.5195L85.251 88.5195L85.251 87.5195L84.251 87.5195ZM84.251 17.4785L85.251 17.4785L85.251 17.0943L84.9937 16.8089L84.251 17.4785ZM1.262e-10 1L68.4933 1L68.4933 -1L-1.262e-10 -1L1.262e-10 1ZM1 68.4935L1 -1.262e-10L-1 1.262e-10L-1 68.4935L1 68.4935ZM17.8383 86.8512L0.743857 67.8252L-0.743857 69.1619L16.3505 88.1879L17.8383 86.8512ZM84.251 86.5195L17.0944 86.5195L17.0944 88.5195L84.251 88.5195L84.251 86.5195ZM83.251 17.4785L83.251 87.5195L85.251 87.5195L85.251 17.4785L83.251 17.4785ZM84.9937 16.8089L69.2361 -0.669598L67.7506 0.669598L83.5083 18.1481L84.9937 16.8089Z" fill="url(#paint1_linear_59_4620)" mask="url(#path-1-inside-1_59_4620)"/>
  <defs>
    <linearGradient id="paint0_linear_59_4620" x1="0.117015" y1="-2.95759" x2="84.3973" y2="-2.95759" gradientUnits="userSpaceOnUse">
      <stop stop-color="#0C273E" stop-opacity="0"/>
      <stop offset="0.364" stop-color="#0C273E"/>
      <stop offset="0.634" stop-color="#0C273E"/>
      <stop offset="1" stop-color="#0C273E" stop-opacity="0"/>
    </linearGradient>
    <linearGradient id="paint1_linear_59_4620" x1="-44.4942" y1="-24.1065" x2="124.163" y2="-11.2529" gradientUnits="userSpaceOnUse">
      <stop offset="0.00541382" stop-color="#8EC9CC" stop-opacity="0"/>
      <stop offset="0.5" stop-color="#B2FBFF"/>
      <stop offset="1" stop-color="#8EC9CC" stop-opacity="0"/>
    </linearGradient>
  </defs>
</svg>